<?xml version="1.0" encoding="UTF-8"?>
<!DOCTYPE svg PUBLIC "-//W3C//DTD SVG 1.1//EN" "http://www.w3.org/Graphics/SVG/1.1/DTD/svg11.dtd">
<svg xmlns="http://www.w3.org/2000/svg" xmlns:xlink="http://www.w3.org/1999/xlink" version="1.1" width="1543px" height="983px" viewBox="-0.5 -0.5 1543 983"><defs/><g><rect x="251" y="411" width="640" height="520" fill="#e1d5e7" stroke="#9673a6" stroke-width="3" pointer-events="all"/><rect x="271" y="431" width="600" height="240" fill="#ffe6cc" stroke="#d79b00" stroke-width="3" pointer-events="all"/><rect x="271" y="671" width="600" height="240" fill="#ffe6cc" stroke="#d79b00" stroke-width="3" pointer-events="all"/><rect x="291" y="451" width="160" height="80" rx="12" ry="12" fill="#dae8fc" stroke="#6c8ebf" stroke-width="3" pointer-events="all"/><rect x="491" y="451" width="160" height="80" rx="12" ry="12" fill="#dae8fc" stroke="#6c8ebf" stroke-width="3" pointer-events="all"/><rect x="691" y="451" width="160" height="80" rx="12" ry="12" fill="#dae8fc" stroke="#6c8ebf" stroke-width="3" pointer-events="all"/><rect x="271" y="551" width="600" height="120" fill="#fff2cc" stroke="#d6b656" stroke-width="3" pointer-events="all"/><rect x="271" y="791" width="600" height="120" fill="#fff2cc" stroke="#d6b656" stroke-width="3" pointer-events="all"/><rect x="291" y="571" width="260" height="80" rx="12" ry="12" fill="#dae8fc" stroke="#6c8ebf" stroke-width="3" pointer-events="all"/><rect x="591" y="571" width="260" height="80" rx="12" ry="12" fill="#dae8fc" stroke="#6c8ebf" stroke-width="3" pointer-events="all"/><rect x="291" y="691" width="160" height="80" rx="12" ry="12" fill="#dae8fc" stroke="#6c8ebf" stroke-width="3" pointer-events="all"/><rect x="491" y="691" width="160" height="80" rx="12" ry="12" fill="#dae8fc" stroke="#6c8ebf" stroke-width="3" pointer-events="all"/><rect x="691" y="691" width="160" height="80" rx="12" ry="12" fill="#dae8fc" stroke="#6c8ebf" stroke-width="3" pointer-events="all"/><rect x="291" y="811" width="260" height="80" rx="12" ry="12" fill="#dae8fc" stroke="#6c8ebf" stroke-width="3" pointer-events="all"/><rect x="591" y="811" width="260" height="80" rx="12" ry="12" fill="#dae8fc" stroke="#6c8ebf" stroke-width="3" pointer-events="all"/><rect x="51" y="51" width="840" height="280" fill="#e1d5e7" stroke="#9673a6" stroke-width="3" pointer-events="all"/><rect x="71" y="71" width="480" height="120" fill="#ffe6cc" stroke="#d79b00" stroke-width="3" pointer-events="all"/><rect x="91" y="91" width="120" height="80" rx="12" ry="12" fill="#dae8fc" stroke="#6c8ebf" stroke-width="3" pointer-events="all"/><rect x="251" y="91" width="120" height="80" rx="12" ry="12" fill="#dae8fc" stroke="#6c8ebf" stroke-width="3" pointer-events="all"/><rect x="411" y="91" width="120" height="80" rx="12" ry="12" fill="#dae8fc" stroke="#6c8ebf" stroke-width="3" pointer-events="all"/><rect x="551" y="71" width="320" height="120" fill="#fff2cc" stroke="#d6b656" stroke-width="3" pointer-events="all"/><rect x="571" y="91" width="120" height="80" rx="12" ry="12" fill="#dae8fc" stroke="#6c8ebf" stroke-width="3" pointer-events="all"/><rect x="731" y="91" width="120" height="80" rx="12" ry="12" fill="#dae8fc" stroke="#6c8ebf" stroke-width="3" pointer-events="all"/><rect x="71" y="191" width="480" height="120" fill="#ffe6cc" stroke="#d79b00" stroke-width="3" pointer-events="all"/><rect x="91" y="211" width="120" height="80" rx="12" ry="12" fill="#dae8fc" stroke="#6c8ebf" stroke-width="3" pointer-events="all"/><rect x="251" y="211" width="120" height="80" rx="12" ry="12" fill="#dae8fc" stroke="#6c8ebf" stroke-width="3" pointer-events="all"/><rect x="411" y="211" width="120" height="80" rx="12" ry="12" fill="#dae8fc" stroke="#6c8ebf" stroke-width="3" pointer-events="all"/><rect x="551" y="191" width="320" height="120" fill="#fff2cc" stroke="#d6b656" stroke-width="3" pointer-events="all"/><rect x="571" y="211" width="120" height="80" rx="12" ry="12" fill="#dae8fc" stroke="#6c8ebf" stroke-width="3" pointer-events="all"/><rect x="731" y="211" width="120" height="80" rx="12" ry="12" fill="#dae8fc" stroke="#6c8ebf" stroke-width="3" pointer-events="all"/><rect x="972" y="51" width="519" height="760" fill="#e1d5e7" stroke="#9673a6" stroke-width="3" pointer-events="all"/><rect x="992" y="71" width="479" height="240" fill="#ffe6cc" stroke="#d79b00" stroke-width="3" pointer-events="all"/><rect x="1012" y="91" width="199" height="80" rx="12" ry="12" fill="#dae8fc" stroke="#6c8ebf" stroke-width="3" pointer-events="all"/><rect x="1251" y="91" width="200" height="80" rx="12" ry="12" fill="#dae8fc" stroke="#6c8ebf" stroke-width="3" pointer-events="all"/><rect x="1011" y="211" width="440" height="80" rx="12" ry="12" fill="#dae8fc" stroke="#6c8ebf" stroke-width="3" pointer-events="all"/><rect x="992" y="311" width="479" height="120" fill="#fff2cc" stroke="#d6b656" stroke-width="3" pointer-events="all"/><rect x="1012" y="331" width="199" height="80" rx="12" ry="12" fill="#dae8fc" stroke="#6c8ebf" stroke-width="3" pointer-events="all"/><rect x="1251" y="331" width="200" height="80" rx="12" ry="12" fill="#dae8fc" stroke="#6c8ebf" stroke-width="3" pointer-events="all"/><rect x="992" y="431" width="479" height="240" fill="#ffe6cc" stroke="#d79b00" stroke-width="3" pointer-events="all"/><rect x="1012" y="451" width="199" height="80" rx="12" ry="12" fill="#dae8fc" stroke="#6c8ebf" stroke-width="3" pointer-events="all"/><rect x="1251" y="451" width="200" height="80" rx="12" ry="12" fill="#dae8fc" stroke="#6c8ebf" stroke-width="3" pointer-events="all"/><rect x="1011" y="571" width="440" height="80" rx="12" ry="12" fill="#dae8fc" stroke="#6c8ebf" stroke-width="3" pointer-events="all"/><rect x="992" y="671" width="479" height="120" fill="#fff2cc" stroke="#d6b656" stroke-width="3" pointer-events="all"/><rect x="1012" y="691" width="199" height="80" rx="12" ry="12" fill="#dae8fc" stroke="#6c8ebf" stroke-width="3" pointer-events="all"/><rect x="1251" y="691" width="200" height="80" rx="12" ry="12" fill="#dae8fc" stroke="#6c8ebf" stroke-width="3" pointer-events="all"/></g></svg>