<?xml version="1.0" encoding="UTF-8"?>
<!DOCTYPE svg PUBLIC "-//W3C//DTD SVG 1.1//EN" "http://www.w3.org/Graphics/SVG/1.1/DTD/svg11.dtd">
<svg xmlns="http://www.w3.org/2000/svg" xmlns:xlink="http://www.w3.org/1999/xlink" version="1.1" width="1523px" height="944px" viewBox="-0.5 -0.5 1523 944"><defs/><g><rect x="151" y="51" width="640" height="520" fill="#e1d5e7" stroke="#9673a6" stroke-width="3" pointer-events="all"/><rect x="171" y="71" width="600" height="240" fill="#ffe6cc" stroke="#d79b00" stroke-width="3" pointer-events="all"/><rect x="171" y="311" width="600" height="240" fill="#ffe6cc" stroke="#d79b00" stroke-width="3" pointer-events="all"/><rect x="191" y="91" width="160" height="80" rx="12" ry="12" fill="#dae8fc" stroke="#6c8ebf" stroke-width="3" pointer-events="all"/><rect x="391" y="91" width="160" height="80" rx="12" ry="12" fill="#dae8fc" stroke="#6c8ebf" stroke-width="3" pointer-events="all"/><rect x="591" y="91" width="160" height="80" rx="12" ry="12" fill="#dae8fc" stroke="#6c8ebf" stroke-width="3" pointer-events="all"/><rect x="171" y="191" width="600" height="120" fill="#fff2cc" stroke="#d6b656" stroke-width="3" pointer-events="all"/><rect x="171" y="431" width="600" height="120" fill="#fff2cc" stroke="#d6b656" stroke-width="3" pointer-events="all"/><rect x="291" y="211" width="160" height="80" rx="12" ry="12" fill="#dae8fc" stroke="#6c8ebf" stroke-width="3" pointer-events="all"/><rect x="491" y="211" width="160" height="80" rx="12" ry="12" fill="#dae8fc" stroke="#6c8ebf" stroke-width="3" pointer-events="all"/><rect x="191" y="331" width="160" height="80" rx="12" ry="12" fill="#dae8fc" stroke="#6c8ebf" stroke-width="3" pointer-events="all"/><rect x="391" y="331" width="160" height="80" rx="12" ry="12" fill="#dae8fc" stroke="#6c8ebf" stroke-width="3" pointer-events="all"/><rect x="591" y="331" width="160" height="80" rx="12" ry="12" fill="#dae8fc" stroke="#6c8ebf" stroke-width="3" pointer-events="all"/><rect x="291" y="451" width="160" height="80" rx="12" ry="12" fill="#dae8fc" stroke="#6c8ebf" stroke-width="3" pointer-events="all"/><rect x="491" y="451" width="160" height="80" rx="12" ry="12" fill="#dae8fc" stroke="#6c8ebf" stroke-width="3" pointer-events="all"/><rect x="51" y="611" width="840" height="280" fill="#e1d5e7" stroke="#9673a6" stroke-width="3" pointer-events="all"/><rect x="71" y="631" width="480" height="120" fill="#ffe6cc" stroke="#d79b00" stroke-width="3" pointer-events="all"/><rect x="91" y="651" width="120" height="80" rx="12" ry="12" fill="#dae8fc" stroke="#6c8ebf" stroke-width="3" pointer-events="all"/><rect x="251" y="651" width="120" height="80" rx="12" ry="12" fill="#dae8fc" stroke="#6c8ebf" stroke-width="3" pointer-events="all"/><rect x="411" y="651" width="120" height="80" rx="12" ry="12" fill="#dae8fc" stroke="#6c8ebf" stroke-width="3" pointer-events="all"/><rect x="551" y="631" width="320" height="120" fill="#fff2cc" stroke="#d6b656" stroke-width="3" pointer-events="all"/><rect x="571" y="651" width="120" height="80" rx="12" ry="12" fill="#dae8fc" stroke="#6c8ebf" stroke-width="3" pointer-events="all"/><rect x="731" y="651" width="120" height="80" rx="12" ry="12" fill="#dae8fc" stroke="#6c8ebf" stroke-width="3" pointer-events="all"/><rect x="71" y="751" width="480" height="120" fill="#ffe6cc" stroke="#d79b00" stroke-width="3" pointer-events="all"/><rect x="91" y="771" width="120" height="80" rx="12" ry="12" fill="#dae8fc" stroke="#6c8ebf" stroke-width="3" pointer-events="all"/><rect x="251" y="771" width="120" height="80" rx="12" ry="12" fill="#dae8fc" stroke="#6c8ebf" stroke-width="3" pointer-events="all"/><rect x="411" y="771" width="120" height="80" rx="12" ry="12" fill="#dae8fc" stroke="#6c8ebf" stroke-width="3" pointer-events="all"/><rect x="551" y="751" width="320" height="120" fill="#fff2cc" stroke="#d6b656" stroke-width="3" pointer-events="all"/><rect x="571" y="771" width="120" height="80" rx="12" ry="12" fill="#dae8fc" stroke="#6c8ebf" stroke-width="3" pointer-events="all"/><rect x="731" y="771" width="120" height="80" rx="12" ry="12" fill="#dae8fc" stroke="#6c8ebf" stroke-width="3" pointer-events="all"/><rect x="952" y="51" width="519" height="760" fill="#e1d5e7" stroke="#9673a6" stroke-width="3" pointer-events="all"/><rect x="972" y="71" width="479" height="240" fill="#ffe6cc" stroke="#d79b00" stroke-width="3" pointer-events="all"/><rect x="992" y="91" width="199" height="80" rx="12" ry="12" fill="#dae8fc" stroke="#6c8ebf" stroke-width="3" pointer-events="all"/><rect x="1231" y="91" width="200" height="80" rx="12" ry="12" fill="#dae8fc" stroke="#6c8ebf" stroke-width="3" pointer-events="all"/><rect x="1111" y="211" width="199" height="80" rx="12" ry="12" fill="#dae8fc" stroke="#6c8ebf" stroke-width="3" pointer-events="all"/><rect x="972" y="311" width="479" height="120" fill="#fff2cc" stroke="#d6b656" stroke-width="3" pointer-events="all"/><rect x="992" y="331" width="199" height="80" rx="12" ry="12" fill="#dae8fc" stroke="#6c8ebf" stroke-width="3" pointer-events="all"/><rect x="1231" y="331" width="200" height="80" rx="12" ry="12" fill="#dae8fc" stroke="#6c8ebf" stroke-width="3" pointer-events="all"/><rect x="972" y="431" width="479" height="240" fill="#ffe6cc" stroke="#d79b00" stroke-width="3" pointer-events="all"/><rect x="992" y="451" width="199" height="80" rx="12" ry="12" fill="#dae8fc" stroke="#6c8ebf" stroke-width="3" pointer-events="all"/><rect x="1231" y="451" width="200" height="80" rx="12" ry="12" fill="#dae8fc" stroke="#6c8ebf" stroke-width="3" pointer-events="all"/><rect x="1111" y="571" width="199" height="80" rx="12" ry="12" fill="#dae8fc" stroke="#6c8ebf" stroke-width="3" pointer-events="all"/><rect x="972" y="671" width="479" height="120" fill="#fff2cc" stroke="#d6b656" stroke-width="3" pointer-events="all"/><rect x="992" y="691" width="199" height="80" rx="12" ry="12" fill="#dae8fc" stroke="#6c8ebf" stroke-width="3" pointer-events="all"/><rect x="1231" y="691" width="200" height="80" rx="12" ry="12" fill="#dae8fc" stroke="#6c8ebf" stroke-width="3" pointer-events="all"/></g></svg>