<?xml version="1.0" encoding="UTF-8"?>
<!DOCTYPE svg PUBLIC "-//W3C//DTD SVG 1.1//EN" "http://www.w3.org/Graphics/SVG/1.1/DTD/svg11.dtd">
<svg xmlns="http://www.w3.org/2000/svg" xmlns:xlink="http://www.w3.org/1999/xlink" version="1.1" width="743px" height="623px" viewBox="-0.5 -0.5 743 623"><defs/><g><rect x="51" y="51" width="640" height="520" fill="#fff2cc" stroke="#d6b656" stroke-width="3" pointer-events="all"/><rect x="91" y="91" width="160" height="80" rx="12" ry="12" fill="#dae8fc" stroke="#6c8ebf" stroke-width="3" pointer-events="all"/><rect x="291" y="91" width="160" height="80" rx="12" ry="12" fill="#dae8fc" stroke="#6c8ebf" stroke-width="3" pointer-events="all"/><rect x="491" y="91" width="160" height="80" rx="12" ry="12" fill="#dae8fc" stroke="#6c8ebf" stroke-width="3" pointer-events="all"/><rect x="91" y="451" width="160" height="80" rx="12" ry="12" fill="#dae8fc" stroke="#6c8ebf" stroke-width="3" pointer-events="all"/><rect x="91" y="211" width="160" height="80" rx="12" ry="12" fill="#dae8fc" stroke="#6c8ebf" stroke-width="3" pointer-events="all"/><rect x="291" y="211" width="160" height="80" rx="12" ry="12" fill="#dae8fc" stroke="#6c8ebf" stroke-width="3" pointer-events="all"/><rect x="491" y="211" width="160" height="80" rx="12" ry="12" fill="#dae8fc" stroke="#6c8ebf" stroke-width="3" pointer-events="all"/><rect x="91" y="331" width="160" height="80" rx="12" ry="12" fill="#dae8fc" stroke="#6c8ebf" stroke-width="3" pointer-events="all"/><rect x="291" y="331" width="160" height="80" rx="12" ry="12" fill="#dae8fc" stroke="#6c8ebf" stroke-width="3" pointer-events="all"/><rect x="491" y="331" width="160" height="80" rx="12" ry="12" fill="#dae8fc" stroke="#6c8ebf" stroke-width="3" pointer-events="all"/></g></svg>