<?xml version="1.0" encoding="UTF-8" standalone="no"?>
<!DOCTYPE svg PUBLIC "-//W3C//DTD SVG 1.0//EN" "http://www.w3.org/TR/2001/PR-SVG-20010719/DTD/svg10.dtd">
<svg width="6cm" height="10cm" viewBox="28 368 103 183" xmlns="http://www.w3.org/2000/svg" xmlns:xlink="http://www.w3.org/1999/xlink">
  <g>
    <ellipse style="fill: #00ff00" cx="80" cy="380" rx="10" ry="10"/>
    <ellipse style="fill: none; fill-opacity:0; stroke-width: 2; stroke: #000000" cx="80" cy="380" rx="10" ry="10"/>
  </g>
  <text font-size="12.8" style="fill: #000000;text-anchor:middle;font-family:sans-serif;font-style:normal;font-weight:normal" x="80" y="385.075">
    <tspan x="80" y="385.075">A</tspan>
  </text>
  <g>
    <ellipse style="fill: #00ff00" cx="40" cy="460" rx="10" ry="10"/>
    <ellipse style="fill: none; fill-opacity:0; stroke-width: 2; stroke: #000000" cx="40" cy="460" rx="10" ry="10"/>
  </g>
  <text font-size="12.8" style="fill: #000000;text-anchor:middle;font-family:sans-serif;font-style:normal;font-weight:normal" x="40" y="465.075">
    <tspan x="40" y="465.075">B</tspan>
  </text>
  <g>
    <ellipse style="fill: #ffffff" cx="120" cy="460" rx="10" ry="10"/>
    <ellipse style="fill: none; fill-opacity:0; stroke-width: 2; stroke: #000000" cx="120" cy="460" rx="10" ry="10"/>
  </g>
  <text font-size="12.8" style="fill: #000000;text-anchor:middle;font-family:sans-serif;font-style:normal;font-weight:normal" x="120" y="465.075">
    <tspan x="120" y="465.075">C</tspan>
  </text>
  <g>
    <ellipse style="fill: #00ff00" cx="80" cy="540" rx="10" ry="10"/>
    <ellipse style="fill: none; fill-opacity:0; stroke-width: 2; stroke: #000000" cx="80" cy="540" rx="10" ry="10"/>
  </g>
  <text font-size="12.8" style="fill: #000000;text-anchor:middle;font-family:sans-serif;font-style:normal;font-weight:normal" x="80" y="545.075">
    <tspan x="80" y="545.075">D</tspan>
  </text>
  <g>
    <line style="fill: none; fill-opacity:0; stroke-width: 2; stroke: #000000" x1="84.8828" y1="389.766" x2="110.763" y2="441.526"/>
    <polygon style="fill: #000000" points="114.117,448.234 105.173,441.526 110.763,441.526 114.117,437.054 "/>
    <polygon style="fill: none; fill-opacity:0; stroke-width: 2; stroke: #000000" points="114.117,448.234 105.173,441.526 110.763,441.526 114.117,437.054 "/>
  </g>
  <g>
    <line style="fill: none; fill-opacity:0; stroke-width: 2; stroke: #000000" x1="75.1172" y1="389.766" x2="49.2369" y2="441.526"/>
    <polygon style="fill: #000000" points="45.8828,448.234 45.8828,437.054 49.2369,441.526 54.8271,441.526 "/>
    <polygon style="fill: none; fill-opacity:0; stroke-width: 2; stroke: #000000" points="45.8828,448.234 45.8828,437.054 49.2369,441.526 54.8271,441.526 "/>
  </g>
  <g>
    <line style="fill: none; fill-opacity:0; stroke-width: 2; stroke: #000000" x1="44.8828" y1="469.766" x2="70.7631" y2="521.526"/>
    <polygon style="fill: #000000" points="74.1172,528.234 65.1729,521.526 70.7631,521.526 74.1172,517.054 "/>
    <polygon style="fill: none; fill-opacity:0; stroke-width: 2; stroke: #000000" points="74.1172,528.234 65.1729,521.526 70.7631,521.526 74.1172,517.054 "/>
  </g>
  <g>
    <line style="fill: none; fill-opacity:0; stroke-width: 2; stroke: #000000" x1="115.117" y1="469.766" x2="89.2369" y2="521.526"/>
    <polygon style="fill: #000000" points="85.8828,528.234 85.8828,517.054 89.2369,521.526 94.8271,521.526 "/>
    <polygon style="fill: none; fill-opacity:0; stroke-width: 2; stroke: #000000" points="85.8828,528.234 85.8828,517.054 89.2369,521.526 94.8271,521.526 "/>
  </g>
  <text font-size="12.7998" style="fill: #000000;text-anchor:end;font-family:sans-serif;font-style:normal;font-weight:normal" x="60" y="410">
    <tspan x="60" y="410">1</tspan>
  </text>
  <text font-size="12.7998" style="fill: #000000;text-anchor:end;font-family:sans-serif;font-style:normal;font-weight:normal" x="50" y="502.8">
    <tspan x="50" y="502.8">2</tspan>
  </text>
  <text font-size="12.7998" style="fill: #000000;text-anchor:start;font-family:sans-serif;font-style:normal;font-weight:normal" x="100" y="410">
    <tspan x="100" y="410">3</tspan>
  </text>
  <text font-size="12.7998" style="fill: #000000;text-anchor:start;font-family:sans-serif;font-style:normal;font-weight:normal" x="110" y="502.8">
    <tspan x="110" y="502.8">4</tspan>
  </text>
</svg>
