<?xml version="1.0" encoding="UTF-8" standalone="no"?>
<!DOCTYPE svg PUBLIC "-//W3C//DTD SVG 1.0//EN" "http://www.w3.org/TR/2001/PR-SVG-20010719/DTD/svg10.dtd">
<svg width="21cm" height="14cm" viewBox="18 21 403 270" xmlns="http://www.w3.org/2000/svg" xmlns:xlink="http://www.w3.org/1999/xlink">
  <text font-size="12.7998" style="fill: #000000;text-anchor:middle;font-family:sans-serif;font-style:normal;font-weight:normal" x="220" y="34.8819">
    <tspan x="220" y="34.8819">filter: opened</tspan>
  </text>
  <g>
    <line style="fill: none; fill-opacity:0; stroke-width: 2; stroke: #000000" x1="250" y1="90" x2="250" y2="110.264"/>
    <polygon style="fill: #000000" points="250,117.764 245,107.764 250,110.264 255,107.764 "/>
    <polygon style="fill: none; fill-opacity:0; stroke-width: 2; stroke: #000000" points="250,117.764 245,107.764 250,110.264 255,107.764 "/>
  </g>
  <g>
    <line style="fill: none; fill-opacity:0; stroke-width: 2; stroke: #000000" x1="130" y1="150" x2="150.264" y2="150"/>
    <polygon style="fill: #000000" points="157.764,150 147.764,155 150.264,150 147.764,145 "/>
    <polygon style="fill: none; fill-opacity:0; stroke-width: 2; stroke: #000000" points="157.764,150 147.764,155 150.264,150 147.764,145 "/>
  </g>
  <g>
    <line style="fill: none; fill-opacity:0; stroke-width: 2; stroke: #000000" x1="270" y1="250" x2="270" y2="290"/>
    <line style="fill: none; fill-opacity:0; stroke-width: 2; stroke: #000000" x1="170" y1="250" x2="170" y2="290"/>
    <text font-size="12.7998" style="fill: #000000;text-anchor:middle;font-family:sans-serif;font-style:normal;font-weight:normal" x="220" y="275.075">
      <tspan x="220" y="275.075">999 tasks</tspan>
    </text>
  </g>
  <line style="fill: none; fill-opacity:0; stroke-width: 2; stroke: #000000" x1="120" y1="250" x2="120" y2="290"/>
  <line style="fill: none; fill-opacity:0; stroke-width: 2; stroke: #000000" x1="20" y1="250" x2="20" y2="290"/>
  <text font-size="12.7998" style="fill: #000000;text-anchor:middle;font-family:sans-serif;font-style:normal;font-weight:normal" x="70" y="275.075">
    <tspan x="70" y="275.075">99 999 tasks</tspan>
  </text>
  <g>
    <line style="fill: none; fill-opacity:0; stroke-width: 2; stroke: #000000" x1="370" y1="90" x2="370" y2="110.264"/>
    <polygon style="fill: #000000" points="370,117.764 365,107.764 370,110.264 375,107.764 "/>
    <polygon style="fill: none; fill-opacity:0; stroke-width: 2; stroke: #000000" points="370,117.764 365,107.764 370,110.264 375,107.764 "/>
  </g>
  <g>
    <line style="fill: none; fill-opacity:0; stroke-width: 2; stroke: #000000" x1="420" y1="250" x2="420" y2="290"/>
    <line style="fill: none; fill-opacity:0; stroke-width: 2; stroke: #000000" x1="320" y1="250" x2="320" y2="290"/>
    <text font-size="12.7998" style="fill: #000000;text-anchor:middle;font-family:sans-serif;font-style:normal;font-weight:normal" x="370" y="275.075">
      <tspan x="370" y="275.075">999 tasks</tspan>
    </text>
  </g>
  <g>
    <rect style="fill: #e5e5e5" x="170" y="40" width="100" height="40"/>
    <rect style="fill: none; fill-opacity:0; stroke-width: 2; stroke: #000000" x="170" y="40" width="100" height="40"/>
  </g>
  <g>
    <line style="fill: none; fill-opacity:0; stroke-width: 2; stroke: #000000" x1="280" y1="150" x2="300.264" y2="150"/>
    <polygon style="fill: #000000" points="307.764,150 297.764,155 300.264,150 297.764,145 "/>
    <polygon style="fill: none; fill-opacity:0; stroke-width: 2; stroke: #000000" points="307.764,150 297.764,155 300.264,150 297.764,145 "/>
  </g>
  <g>
    <rect style="fill: #e5e5e5" x="320" y="40" width="100" height="40"/>
    <rect style="fill: none; fill-opacity:0; stroke-width: 2; stroke: #000000" x="320" y="40" width="100" height="40"/>
  </g>
  <g>
    <ellipse style="fill: #ffffff" cx="370" cy="60" rx="10" ry="10"/>
    <ellipse style="fill: none; fill-opacity:0; stroke-width: 2; stroke: #000000" cx="370" cy="60" rx="10" ry="10"/>
  </g>
  <text font-size="12.7998" style="fill: #000000;text-anchor:middle;font-family:sans-serif;font-style:normal;font-weight:normal" x="370" y="65.075">
    <tspan x="370" y="65.075">D</tspan>
  </text>
  <g>
    <ellipse style="fill: #ff0000" cx="250" cy="60" rx="10" ry="10"/>
    <ellipse style="fill: none; fill-opacity:0; stroke-width: 2; stroke: #000000" cx="250" cy="60" rx="10" ry="10"/>
  </g>
  <text font-size="12.7998" style="fill: #ffffff;text-anchor:middle;font-family:sans-serif;font-style:normal;font-weight:normal" x="250" y="65.075">
    <tspan x="250" y="65.075">O</tspan>
  </text>
  <g>
    <g>
      <rect style="fill: #e5e5e5" x="20" y="90" width="100" height="40"/>
      <rect style="fill: none; fill-opacity:0; stroke-width: 2; stroke: #000000" x="20" y="90" width="100" height="40"/>
    </g>
    <g>
      <ellipse style="fill: #ffffff" cx="40" cy="110" rx="10" ry="10"/>
      <ellipse style="fill: none; fill-opacity:0; stroke-width: 2; stroke: #000000" cx="40" cy="110" rx="10" ry="10"/>
    </g>
    <text font-size="12.7998" style="fill: #000000;text-anchor:middle;font-family:sans-serif;font-style:normal;font-weight:normal" x="40" y="115.075">
      <tspan x="40" y="115.075">B</tspan>
    </text>
    <g>
      <ellipse style="fill: #ffffff" cx="70" cy="110" rx="10" ry="10"/>
      <ellipse style="fill: none; fill-opacity:0; stroke-width: 2; stroke: #000000" cx="70" cy="110" rx="10" ry="10"/>
    </g>
    <text font-size="12.7998" style="fill: #000000;text-anchor:middle;font-family:sans-serif;font-style:normal;font-weight:normal" x="70" y="115.075">
      <tspan x="70" y="115.075">1</tspan>
    </text>
    <g>
      <ellipse style="fill: #00ff00" cx="100" cy="110" rx="10" ry="10"/>
      <ellipse style="fill: none; fill-opacity:0; stroke-width: 2; stroke: #000000" cx="100" cy="110" rx="10" ry="10"/>
    </g>
    <text font-size="12.7998" style="fill: #000000;text-anchor:middle;font-family:sans-serif;font-style:normal;font-weight:normal" x="100" y="115.075">
      <tspan x="100" y="115.075">C</tspan>
    </text>
  </g>
  <g>
    <g>
      <rect style="fill: #e5e5e5" x="20" y="170" width="100" height="40"/>
      <rect style="fill: none; fill-opacity:0; stroke-width: 2; stroke: #000000" x="20" y="170" width="100" height="40"/>
    </g>
    <g>
      <ellipse style="fill: #ffffff" cx="40" cy="190" rx="10" ry="10"/>
      <ellipse style="fill: none; fill-opacity:0; stroke-width: 2; stroke: #000000" cx="40" cy="190" rx="10" ry="10"/>
    </g>
    <text font-size="12.7998" style="fill: #000000;text-anchor:middle;font-family:sans-serif;font-style:normal;font-weight:normal" x="40" y="195.075">
      <tspan x="40" y="195.075">D</tspan>
    </text>
    <g>
      <ellipse style="fill: #ffffff" cx="70" cy="190" rx="10" ry="10"/>
      <ellipse style="fill: none; fill-opacity:0; stroke-width: 2; stroke: #000000" cx="70" cy="190" rx="10" ry="10"/>
    </g>
    <text font-size="12.7998" style="fill: #000000;text-anchor:middle;font-family:sans-serif;font-style:normal;font-weight:normal" x="70" y="195.075">
      <tspan x="70" y="195.075">2</tspan>
    </text>
    <g>
      <ellipse style="fill: #ff0000" cx="100" cy="190" rx="10" ry="10"/>
      <ellipse style="fill: none; fill-opacity:0; stroke-width: 2; stroke: #000000" cx="100" cy="190" rx="10" ry="10"/>
    </g>
    <text font-size="12.7998" style="fill: #ffffff;text-anchor:middle;font-family:sans-serif;font-style:normal;font-weight:normal" x="100" y="195.075">
      <tspan x="100" y="195.075">O</tspan>
    </text>
  </g>
  <g>
    <g>
      <rect style="fill: #e5e5e5" x="20" y="210" width="100" height="40"/>
      <rect style="fill: none; fill-opacity:0; stroke-width: 2; stroke: #000000" x="20" y="210" width="100" height="40"/>
    </g>
    <g>
      <ellipse style="fill: #ffffff" cx="40" cy="230" rx="10" ry="10"/>
      <ellipse style="fill: none; fill-opacity:0; stroke-width: 2; stroke: #000000" cx="40" cy="230" rx="10" ry="10"/>
    </g>
    <text font-size="12.7998" style="fill: #000000;text-anchor:middle;font-family:sans-serif;font-style:normal;font-weight:normal" x="40" y="235.075">
      <tspan x="40" y="235.075">E</tspan>
    </text>
    <g>
      <ellipse style="fill: #ffffff" cx="70" cy="230" rx="10" ry="10"/>
      <ellipse style="fill: none; fill-opacity:0; stroke-width: 2; stroke: #000000" cx="70" cy="230" rx="10" ry="10"/>
    </g>
    <text font-size="12.7998" style="fill: #000000;text-anchor:middle;font-family:sans-serif;font-style:normal;font-weight:normal" x="70" y="235.075">
      <tspan x="70" y="235.075">3</tspan>
    </text>
    <g>
      <ellipse style="fill: #00ff00" cx="100" cy="230" rx="10" ry="10"/>
      <ellipse style="fill: none; fill-opacity:0; stroke-width: 2; stroke: #000000" cx="100" cy="230" rx="10" ry="10"/>
    </g>
    <text font-size="12.7998" style="fill: #000000;text-anchor:middle;font-family:sans-serif;font-style:normal;font-weight:normal" x="100" y="235.075">
      <tspan x="100" y="235.075">C</tspan>
    </text>
  </g>
  <g>
    <g>
      <rect style="fill: #e5e5e5" x="20" y="50" width="100" height="40"/>
      <rect style="fill: none; fill-opacity:0; stroke-width: 2; stroke: #000000" x="20" y="50" width="100" height="40"/>
    </g>
    <g>
      <ellipse style="fill: #ffffff" cx="40" cy="70" rx="10" ry="10"/>
      <ellipse style="fill: none; fill-opacity:0; stroke-width: 2; stroke: #000000" cx="40" cy="70" rx="10" ry="10"/>
    </g>
    <text font-size="12.7998" style="fill: #000000;text-anchor:middle;font-family:sans-serif;font-style:normal;font-weight:normal" x="40" y="75.075">
      <tspan x="40" y="75.075">A</tspan>
    </text>
    <g>
      <ellipse style="fill: #ffffff" cx="70" cy="70" rx="10" ry="10"/>
      <ellipse style="fill: none; fill-opacity:0; stroke-width: 2; stroke: #000000" cx="70" cy="70" rx="10" ry="10"/>
    </g>
    <text font-size="12.7998" style="fill: #000000;text-anchor:middle;font-family:sans-serif;font-style:normal;font-weight:normal" x="70" y="75.075">
      <tspan x="70" y="75.075">3</tspan>
    </text>
    <g>
      <ellipse style="fill: #ff0000" cx="100" cy="70" rx="10" ry="10"/>
      <ellipse style="fill: none; fill-opacity:0; stroke-width: 2; stroke: #000000" cx="100" cy="70" rx="10" ry="10"/>
    </g>
    <text font-size="12.7998" style="fill: #ffffff;text-anchor:middle;font-family:sans-serif;font-style:normal;font-weight:normal" x="100" y="75.075">
      <tspan x="100" y="75.075">O</tspan>
    </text>
  </g>
  <g>
    <g>
      <rect style="fill: #e5e5e5" x="20" y="130" width="100" height="40"/>
      <rect style="fill: none; fill-opacity:0; stroke-width: 2; stroke: #000000" x="20" y="130" width="100" height="40"/>
    </g>
    <g>
      <ellipse style="fill: #ffffff" cx="40" cy="150" rx="10" ry="10"/>
      <ellipse style="fill: none; fill-opacity:0; stroke-width: 2; stroke: #000000" cx="40" cy="150" rx="10" ry="10"/>
    </g>
    <text font-size="12.7998" style="fill: #000000;text-anchor:middle;font-family:sans-serif;font-style:normal;font-weight:normal" x="40" y="155.075">
      <tspan x="40" y="155.075">C</tspan>
    </text>
    <g>
      <ellipse style="fill: #ffffff" cx="70" cy="150" rx="10" ry="10"/>
      <ellipse style="fill: none; fill-opacity:0; stroke-width: 2; stroke: #000000" cx="70" cy="150" rx="10" ry="10"/>
    </g>
    <text font-size="12.7998" style="fill: #000000;text-anchor:middle;font-family:sans-serif;font-style:normal;font-weight:normal" x="70" y="155.075">
      <tspan x="70" y="155.075">1</tspan>
    </text>
    <g>
      <ellipse style="fill: #ff0000" cx="100" cy="150" rx="10" ry="10"/>
      <ellipse style="fill: none; fill-opacity:0; stroke-width: 2; stroke: #000000" cx="100" cy="150" rx="10" ry="10"/>
    </g>
    <text font-size="12.7998" style="fill: #ffffff;text-anchor:middle;font-family:sans-serif;font-style:normal;font-weight:normal" x="100" y="155.075">
      <tspan x="100" y="155.075">O</tspan>
    </text>
  </g>
  <g>
    <g>
      <rect style="fill: #e5e5e5" x="170" y="210" width="100" height="40"/>
      <rect style="fill: none; fill-opacity:0; stroke-width: 2; stroke: #000000" x="170" y="210" width="100" height="40"/>
    </g>
    <g>
      <ellipse style="fill: #ffffff" cx="190" cy="230" rx="10" ry="10"/>
      <ellipse style="fill: none; fill-opacity:0; stroke-width: 2; stroke: #000000" cx="190" cy="230" rx="10" ry="10"/>
    </g>
    <text font-size="12.7998" style="fill: #000000;text-anchor:middle;font-family:sans-serif;font-style:normal;font-weight:normal" x="190" y="235.075">
      <tspan x="190" y="235.075">D</tspan>
    </text>
    <g>
      <ellipse style="fill: #ffffff" cx="220" cy="230" rx="10" ry="10"/>
      <ellipse style="fill: none; fill-opacity:0; stroke-width: 2; stroke: #000000" cx="220" cy="230" rx="10" ry="10"/>
    </g>
    <text font-size="12.7998" style="fill: #000000;text-anchor:middle;font-family:sans-serif;font-style:normal;font-weight:normal" x="220" y="235.075">
      <tspan x="220" y="235.075">2</tspan>
    </text>
    <g>
      <ellipse style="fill: #ff0000" cx="250" cy="230" rx="10" ry="10"/>
      <ellipse style="fill: none; fill-opacity:0; stroke-width: 2; stroke: #000000" cx="250" cy="230" rx="10" ry="10"/>
    </g>
    <text font-size="12.7998" style="fill: #ffffff;text-anchor:middle;font-family:sans-serif;font-style:normal;font-weight:normal" x="250" y="235.075">
      <tspan x="250" y="235.075">O</tspan>
    </text>
  </g>
  <g>
    <g>
      <rect style="fill: #e5e5e5" x="170" y="130" width="100" height="40"/>
      <rect style="fill: none; fill-opacity:0; stroke-width: 2; stroke: #000000" x="170" y="130" width="100" height="40"/>
    </g>
    <g>
      <ellipse style="fill: #ffffff" cx="190" cy="150" rx="10" ry="10"/>
      <ellipse style="fill: none; fill-opacity:0; stroke-width: 2; stroke: #000000" cx="190" cy="150" rx="10" ry="10"/>
    </g>
    <text font-size="12.7998" style="fill: #000000;text-anchor:middle;font-family:sans-serif;font-style:normal;font-weight:normal" x="190" y="155.075">
      <tspan x="190" y="155.075">A</tspan>
    </text>
    <g>
      <ellipse style="fill: #ffffff" cx="220" cy="150" rx="10" ry="10"/>
      <ellipse style="fill: none; fill-opacity:0; stroke-width: 2; stroke: #000000" cx="220" cy="150" rx="10" ry="10"/>
    </g>
    <text font-size="12.7998" style="fill: #000000;text-anchor:middle;font-family:sans-serif;font-style:normal;font-weight:normal" x="220" y="155.075">
      <tspan x="220" y="155.075">3</tspan>
    </text>
    <g>
      <ellipse style="fill: #ff0000" cx="250" cy="150" rx="10" ry="10"/>
      <ellipse style="fill: none; fill-opacity:0; stroke-width: 2; stroke: #000000" cx="250" cy="150" rx="10" ry="10"/>
    </g>
    <text font-size="12.7998" style="fill: #ffffff;text-anchor:middle;font-family:sans-serif;font-style:normal;font-weight:normal" x="250" y="155.075">
      <tspan x="250" y="155.075">O</tspan>
    </text>
  </g>
  <g>
    <g>
      <rect style="fill: #e5e5e5" x="170" y="170" width="100" height="40"/>
      <rect style="fill: none; fill-opacity:0; stroke-width: 2; stroke: #000000" x="170" y="170" width="100" height="40"/>
    </g>
    <g>
      <ellipse style="fill: #ffffff" cx="190" cy="190" rx="10" ry="10"/>
      <ellipse style="fill: none; fill-opacity:0; stroke-width: 2; stroke: #000000" cx="190" cy="190" rx="10" ry="10"/>
    </g>
    <text font-size="12.7998" style="fill: #000000;text-anchor:middle;font-family:sans-serif;font-style:normal;font-weight:normal" x="190" y="195.075">
      <tspan x="190" y="195.075">C</tspan>
    </text>
    <g>
      <ellipse style="fill: #ffffff" cx="220" cy="190" rx="10" ry="10"/>
      <ellipse style="fill: none; fill-opacity:0; stroke-width: 2; stroke: #000000" cx="220" cy="190" rx="10" ry="10"/>
    </g>
    <text font-size="12.7998" style="fill: #000000;text-anchor:middle;font-family:sans-serif;font-style:normal;font-weight:normal" x="220" y="195.075">
      <tspan x="220" y="195.075">1</tspan>
    </text>
    <g>
      <ellipse style="fill: #ff0000" cx="250" cy="190" rx="10" ry="10"/>
      <ellipse style="fill: none; fill-opacity:0; stroke-width: 2; stroke: #000000" cx="250" cy="190" rx="10" ry="10"/>
    </g>
    <text font-size="12.7998" style="fill: #ffffff;text-anchor:middle;font-family:sans-serif;font-style:normal;font-weight:normal" x="250" y="195.075">
      <tspan x="250" y="195.075">O</tspan>
    </text>
  </g>
  <g>
    <g>
      <rect style="fill: #e5e5e5" x="320" y="130" width="100" height="40"/>
      <rect style="fill: none; fill-opacity:0; stroke-width: 2; stroke: #000000" x="320" y="130" width="100" height="40"/>
    </g>
    <g>
      <ellipse style="fill: #ffffff" cx="340" cy="150" rx="10" ry="10"/>
      <ellipse style="fill: none; fill-opacity:0; stroke-width: 2; stroke: #000000" cx="340" cy="150" rx="10" ry="10"/>
    </g>
    <text font-size="12.7998" style="fill: #000000;text-anchor:middle;font-family:sans-serif;font-style:normal;font-weight:normal" x="340" y="155.075">
      <tspan x="340" y="155.075">C</tspan>
    </text>
    <g>
      <ellipse style="fill: #ffffff" cx="370" cy="150" rx="10" ry="10"/>
      <ellipse style="fill: none; fill-opacity:0; stroke-width: 2; stroke: #000000" cx="370" cy="150" rx="10" ry="10"/>
    </g>
    <text font-size="12.7998" style="fill: #000000;text-anchor:middle;font-family:sans-serif;font-style:normal;font-weight:normal" x="370" y="155.075">
      <tspan x="370" y="155.075">1</tspan>
    </text>
    <g>
      <ellipse style="fill: #ff0000" cx="400" cy="150" rx="10" ry="10"/>
      <ellipse style="fill: none; fill-opacity:0; stroke-width: 2; stroke: #000000" cx="400" cy="150" rx="10" ry="10"/>
    </g>
    <text font-size="12.7998" style="fill: #ffffff;text-anchor:middle;font-family:sans-serif;font-style:normal;font-weight:normal" x="400" y="155.075">
      <tspan x="400" y="155.075">O</tspan>
    </text>
  </g>
  <g>
    <g>
      <rect style="fill: #e5e5e5" x="320" y="170" width="100" height="40"/>
      <rect style="fill: none; fill-opacity:0; stroke-width: 2; stroke: #000000" x="320" y="170" width="100" height="40"/>
    </g>
    <g>
      <ellipse style="fill: #ffffff" cx="340" cy="190" rx="10" ry="10"/>
      <ellipse style="fill: none; fill-opacity:0; stroke-width: 2; stroke: #000000" cx="340" cy="190" rx="10" ry="10"/>
    </g>
    <text font-size="12.7998" style="fill: #000000;text-anchor:middle;font-family:sans-serif;font-style:normal;font-weight:normal" x="340" y="195.075">
      <tspan x="340" y="195.075">D</tspan>
    </text>
    <g>
      <ellipse style="fill: #ffffff" cx="370" cy="190" rx="10" ry="10"/>
      <ellipse style="fill: none; fill-opacity:0; stroke-width: 2; stroke: #000000" cx="370" cy="190" rx="10" ry="10"/>
    </g>
    <text font-size="12.7998" style="fill: #000000;text-anchor:middle;font-family:sans-serif;font-style:normal;font-weight:normal" x="370" y="195.075">
      <tspan x="370" y="195.075">2</tspan>
    </text>
    <g>
      <ellipse style="fill: #ff0000" cx="400" cy="190" rx="10" ry="10"/>
      <ellipse style="fill: none; fill-opacity:0; stroke-width: 2; stroke: #000000" cx="400" cy="190" rx="10" ry="10"/>
    </g>
    <text font-size="12.7998" style="fill: #ffffff;text-anchor:middle;font-family:sans-serif;font-style:normal;font-weight:normal" x="400" y="195.075">
      <tspan x="400" y="195.075">O</tspan>
    </text>
  </g>
  <g>
    <g>
      <rect style="fill: #e5e5e5" x="320" y="210" width="100" height="40"/>
      <rect style="fill: none; fill-opacity:0; stroke-width: 2; stroke: #000000" x="320" y="210" width="100" height="40"/>
    </g>
    <g>
      <ellipse style="fill: #ffffff" cx="340" cy="230" rx="10" ry="10"/>
      <ellipse style="fill: none; fill-opacity:0; stroke-width: 2; stroke: #000000" cx="340" cy="230" rx="10" ry="10"/>
    </g>
    <text font-size="12.7998" style="fill: #000000;text-anchor:middle;font-family:sans-serif;font-style:normal;font-weight:normal" x="340" y="235.075">
      <tspan x="340" y="235.075">A</tspan>
    </text>
    <g>
      <ellipse style="fill: #ffffff" cx="370" cy="230" rx="10" ry="10"/>
      <ellipse style="fill: none; fill-opacity:0; stroke-width: 2; stroke: #000000" cx="370" cy="230" rx="10" ry="10"/>
    </g>
    <text font-size="12.7998" style="fill: #000000;text-anchor:middle;font-family:sans-serif;font-style:normal;font-weight:normal" x="370" y="235.075">
      <tspan x="370" y="235.075">3</tspan>
    </text>
    <g>
      <ellipse style="fill: #ff0000" cx="400" cy="230" rx="10" ry="10"/>
      <ellipse style="fill: none; fill-opacity:0; stroke-width: 2; stroke: #000000" cx="400" cy="230" rx="10" ry="10"/>
    </g>
    <text font-size="12.7998" style="fill: #ffffff;text-anchor:middle;font-family:sans-serif;font-style:normal;font-weight:normal" x="400" y="235.075">
      <tspan x="400" y="235.075">O</tspan>
    </text>
  </g>
  <text font-size="12.7998" style="fill: #000000;text-anchor:middle;font-family:sans-serif;font-style:normal;font-weight:normal" x="70" y="45.075">
    <tspan x="70" y="45.075">  title  due status</tspan>
  </text>
  <text font-size="12.7998" style="fill: #000000;text-anchor:middle;font-family:sans-serif;font-style:normal;font-weight:normal" x="170" y="125.075">
    <tspan x="170" y="125.075">500 ms</tspan>
  </text>
  <text font-size="12.7998" style="fill: #000000;text-anchor:middle;font-family:sans-serif;font-style:normal;font-weight:normal" x="320" y="125.075">
    <tspan x="320" y="125.075">100 ms</tspan>
  </text>
  <text font-size="12.7998" style="fill: #000000;text-anchor:middle;font-family:sans-serif;font-style:normal;font-weight:normal" x="370" y="35.075">
    <tspan x="370" y="35.075">sort: due</tspan>
  </text>
  <g>
    <path style="fill: none; fill-opacity:0; stroke-width: 2; stroke: #000000" d="M 260,80 A 79.5629,79.5629 0 0 0 301.175,136.018"/>
    <polygon style="fill: #000000" points="307.91,139.206 296.786,140.329 300.898,136.543 300.337,130.981 "/>
    <polygon style="fill: none; fill-opacity:0; stroke-width: 2; stroke: #000000" points="307.91,139.206 296.786,140.329 300.898,136.543 300.337,130.981 "/>
  </g>
  <g>
    <path style="fill: none; fill-opacity:0; stroke-width: 2; stroke: #000000" d="M 107.071,77.0711 A 602.252,602.252 0 0 0 300.485,157.942"/>
    <polygon style="fill: #000000" points="307.811,159.545 297.002,162.405 300.468,158.019 299.037,152.615 "/>
    <polygon style="fill: none; fill-opacity:0; stroke-width: 2; stroke: #000000" points="307.811,159.545 297.002,162.405 300.468,158.019 299.037,152.615 "/>
  </g>
  <g>
    <path style="fill: none; fill-opacity:0; stroke-width: 2; stroke: #000000" d="M 107.071,117.071 A 652.441,652.441 0 0 0 300.433,188.195"/>
    <polygon style="fill: #000000" points="307.8,189.602 297.069,192.742 300.419,188.267 298.85,182.901 "/>
    <polygon style="fill: none; fill-opacity:0; stroke-width: 2; stroke: #000000" points="307.8,189.602 297.069,192.742 300.419,188.267 298.85,182.901 "/>
  </g>
  <g>
    <path style="fill: none; fill-opacity:0; stroke-width: 2; stroke: #000000" d="M 107.071,157.071 A 425.381,425.381 0 0 0 300.283,219.419"/>
    <polygon style="fill: #000000" points="307.767,219.892 297.537,224.403 300.275,219.53 298.02,214.415 "/>
    <polygon style="fill: none; fill-opacity:0; stroke-width: 2; stroke: #000000" points="307.767,219.892 297.537,224.403 300.275,219.53 298.02,214.415 "/>
  </g>
  <g>
    <path style="fill: none; fill-opacity:0; stroke-width: 2; stroke: #000000" d="M 107.071,197.071 A 425.381,425.381 0 0 0 300.283,259.419"/>
    <polygon style="fill: #000000" points="307.767,259.892 297.537,264.403 300.275,259.53 298.02,254.415 "/>
    <polygon style="fill: none; fill-opacity:0; stroke-width: 2; stroke: #000000" points="307.767,259.892 297.537,264.403 300.275,259.53 298.02,254.415 "/>
  </g>
  <g>
    <path style="fill: none; fill-opacity:0; stroke-width: 2; stroke: #000000" d="M 107.071,237.071 A 420.722,420.722 0 0 0 300.27,280.283"/>
    <polygon style="fill: #000000" points="307.766,280.091 297.977,285.493 300.272,280.395 297.571,275.501 "/>
    <polygon style="fill: none; fill-opacity:0; stroke-width: 2; stroke: #000000" points="307.766,280.091 297.977,285.493 300.272,280.395 297.571,275.501 "/>
  </g>
  <g>
    <path style="fill: none; fill-opacity:0; stroke-width: 2; stroke: #000000" d="M 301.72,174.896 A 197.251,197.251 0 0 0 230,150"/>
    <polygon style="fill: #000000" points="308.126,178.78 297.018,177.515 301.841,174.688 302.473,169.134 "/>
    <polygon style="fill: none; fill-opacity:0; stroke-width: 2; stroke: #000000" points="308.126,178.78 297.018,177.515 301.841,174.688 302.473,169.134 "/>
  </g>
  <g>
    <path style="fill: none; fill-opacity:0; stroke-width: 2; stroke: #000000" d="M 304.055,208.936 A 250.686,250.686 0 0 0 230,190"/>
    <polygon style="fill: #000000" points="310.908,211.972 299.73,212.212 304.129,208.762 304.01,203.174 "/>
    <polygon style="fill: none; fill-opacity:0; stroke-width: 2; stroke: #000000" points="310.908,211.972 299.73,212.212 304.129,208.762 304.01,203.174 "/>
  </g>
  <g>
    <path style="fill: none; fill-opacity:0; stroke-width: 2; stroke: #000000" d="M 304.055,248.936 A 250.686,250.686 0 0 0 230,230"/>
    <polygon style="fill: #000000" points="310.908,251.972 299.73,252.212 304.129,248.762 304.01,243.174 "/>
    <polygon style="fill: none; fill-opacity:0; stroke-width: 2; stroke: #000000" points="310.908,251.972 299.73,252.212 304.129,248.762 304.01,243.174 "/>
  </g>
  <g>
    <path style="fill: none; fill-opacity:0; stroke-width: 2; stroke: #000000" d="M 100,80 A 71.9318,71.9318 0 0 0 150.501,128.192"/>
    <polygon style="fill: #000000" points="157.78,129.73 147.25,133.488 150.335,128.826 148.456,123.561 "/>
    <polygon style="fill: none; fill-opacity:0; stroke-width: 2; stroke: #000000" points="157.78,129.73 147.25,133.488 150.335,128.826 148.456,123.561 "/>
  </g>
  <g>
    <path style="fill: none; fill-opacity:0; stroke-width: 2; stroke: #000000" d="M 100,120 A 71.9318,71.9318 0 0 0 150.501,168.192"/>
    <polygon style="fill: #000000" points="157.78,169.73 147.25,173.488 150.335,168.826 148.456,163.561 "/>
    <polygon style="fill: none; fill-opacity:0; stroke-width: 2; stroke: #000000" points="157.78,169.73 147.25,173.488 150.335,168.826 148.456,163.561 "/>
  </g>
  <g>
    <path style="fill: none; fill-opacity:0; stroke-width: 2; stroke: #000000" d="M 100,160 A 71.9318,71.9318 0 0 0 150.501,208.192"/>
    <polygon style="fill: #000000" points="157.78,209.73 147.25,213.488 150.335,208.826 148.456,203.561 "/>
    <polygon style="fill: none; fill-opacity:0; stroke-width: 2; stroke: #000000" points="157.78,209.73 147.25,213.488 150.335,208.826 148.456,203.561 "/>
  </g>
  <g>
    <path style="fill: none; fill-opacity:0; stroke-width: 2; stroke: #000000" d="M 100,200 A 128.015,128.015 0 0 0 150.555,227.724"/>
    <polygon style="fill: #000000" points="157.808,229.559 147.018,232.488 150.455,228.08 148.991,222.685 "/>
    <polygon style="fill: none; fill-opacity:0; stroke-width: 2; stroke: #000000" points="157.808,229.559 147.018,232.488 150.455,228.08 148.991,222.685 "/>
  </g>
  <g>
    <path style="fill: none; fill-opacity:0; stroke-width: 2; stroke: #000000" d="M 110,230 A 196.141,196.141 0 0 0 150.619,247.428"/>
    <polygon style="fill: #000000" points="157.83,249.462 146.921,251.912 150.549,247.659 149.325,242.205 "/>
    <polygon style="fill: none; fill-opacity:0; stroke-width: 2; stroke: #000000" points="157.83,249.462 146.921,251.912 150.549,247.659 149.325,242.205 "/>
  </g>
  <g>
    <path style="fill: none; fill-opacity:0; stroke-width: 2; stroke: #000000" d="M 340.736,117.013 A 400.404,400.404 0 0 0 130,110"/>
    <polygon style="fill: #000000" points="347.88,119.288 336.809,120.844 340.771,116.9 339.993,111.364 "/>
    <polygon style="fill: none; fill-opacity:0; stroke-width: 2; stroke: #000000" points="347.88,119.288 336.809,120.844 340.771,116.9 339.993,111.364 "/>
  </g>
</svg>
