<?xml version="1.0" encoding="UTF-8" standalone="no"?>
<!DOCTYPE svg PUBLIC "-//W3C//DTD SVG 1.0//EN" "http://www.w3.org/TR/2001/PR-SVG-20010719/DTD/svg10.dtd">
<svg width="22cm" height="6cm" viewBox="18 89 423 112" xmlns="http://www.w3.org/2000/svg" xmlns:xlink="http://www.w3.org/1999/xlink">
  <path style="fill: none; fill-opacity:0; stroke-width: 2; stroke: #000000" d="M 120,190 A 50.0001,50.0001 0 1 0 20,190"/>
  <g>
    <ellipse style="fill: #ffffff" cx="70" cy="120" rx="30" ry="30"/>
    <ellipse style="fill: none; fill-opacity:0; stroke-width: 2; stroke: #000000" cx="70" cy="120" rx="30" ry="30"/>
    <ellipse style="fill: none; fill-opacity:0; stroke-width: 2; stroke: #000000" cx="70" cy="120" rx="30" ry="30"/>
  </g>
  <path style="fill: none; fill-opacity:0; stroke-width: 2; stroke: #000000" d="M 50,130 A 25,25 0 0 0 90,130"/>
  <g>
    <ellipse style="fill: #ff0000" cx="55" cy="115" rx="5" ry="5"/>
    <ellipse style="fill: none; fill-opacity:0; stroke-width: 2; stroke: #000000" cx="55" cy="115" rx="5" ry="5"/>
    <ellipse style="fill: none; fill-opacity:0; stroke-width: 2; stroke: #000000" cx="55" cy="115" rx="5" ry="5"/>
  </g>
  <g>
    <ellipse style="fill: #ff0000" cx="85" cy="115" rx="5" ry="5"/>
    <ellipse style="fill: none; fill-opacity:0; stroke-width: 2; stroke: #000000" cx="85" cy="115" rx="5" ry="5"/>
    <ellipse style="fill: none; fill-opacity:0; stroke-width: 2; stroke: #000000" cx="85" cy="115" rx="5" ry="5"/>
  </g>
  <g>
    <rect style="fill: #ffffff" x="180" y="110" width="110" height="70"/>
    <rect style="fill: none; fill-opacity:0; stroke-width: 2; stroke: #000000" x="180" y="110" width="110" height="70"/>
  </g>
  <g>
    <rect style="fill: #ffffff" x="190" y="120" width="20" height="50"/>
    <rect style="fill: none; fill-opacity:0; stroke-width: 2; stroke: #000000" x="190" y="120" width="20" height="50"/>
  </g>
  <g>
    <rect style="fill: #ffffff" x="220" y="120" width="60" height="50"/>
    <rect style="fill: none; fill-opacity:0; stroke-width: 2; stroke: #000000" x="220" y="120" width="60" height="50"/>
  </g>
  <line style="fill: none; fill-opacity:0; stroke-width: 2; stroke: #000000" x1="230" y1="130" x2="270" y2="130"/>
  <line style="fill: none; fill-opacity:0; stroke-width: 2; stroke: #000000" x1="230" y1="140" x2="270" y2="140"/>
  <line style="fill: none; fill-opacity:0; stroke-width: 2; stroke: #000000" x1="230" y1="150" x2="270" y2="150"/>
  <line style="fill: none; fill-opacity:0; stroke-width: 2; stroke: #000000" x1="230" y1="160" x2="270" y2="160"/>
  <line style="fill: none; fill-opacity:0; stroke-width: 2; stroke: #000000" x1="190" y1="130" x2="210" y2="130"/>
  <line style="fill: none; fill-opacity:0; stroke-width: 2; stroke: #000000" x1="190" y1="140" x2="210" y2="140"/>
  <line style="fill: none; fill-opacity:0; stroke-width: 2; stroke: #000000" x1="190" y1="150" x2="210" y2="150"/>
  <line style="fill: none; fill-opacity:0; stroke-width: 2; stroke: #000000" x1="190" y1="160" x2="210" y2="160"/>
  <g>
    <rect style="fill: #ffffff" x="350" y="122.727" width="89.0909" height="44.5455"/>
    <ellipse style="fill: #ffffff" cx="394.545" cy="167.273" rx="44.5455" ry="12.7273"/>
    <ellipse style="fill: #ffffff" cx="394.545" cy="122.727" rx="44.5455" ry="12.7273"/>
    <path style="fill: none; fill-opacity:0; stroke-width: 2; stroke: #000000" d="M 350 122.727 L 350,167.273"/>
    <path style="fill: none; fill-opacity:0; stroke-width: 2; stroke: #000000" d="M 439.091 122.727 L 439.091,167.273"/>
    <path style="fill: none; fill-opacity:0; stroke-width: 2; stroke: #000000" d="M 350 122.727 C 350,115.698 376.973,110 394.545,110 C 412.118,110 439.091,115.698 439.091,122.727"/>
    <path style="fill: none; fill-opacity:0; stroke-width: 2; stroke: #000000" d="M 350 122.727 C 350,129.756 376.973,135.455 394.545,135.455 C 412.118,135.455 439.091,129.756 439.091,122.727"/>
    <path style="fill: none; fill-opacity:0; stroke-width: 2; stroke: #000000" d="M 350 133.864 C 350,140.893 376.973,146.591 394.545,146.591 C 412.118,146.591 439.091,140.893 439.091,133.864"/>
    <path style="fill: none; fill-opacity:0; stroke-width: 2; stroke: #000000" d="M 350 145 C 350,152.029 376.973,157.727 394.545,157.727 C 412.118,157.727 439.091,152.029 439.091,145"/>
    <path style="fill: none; fill-opacity:0; stroke-width: 2; stroke: #000000" d="M 350 156.136 C 350,163.165 376.973,168.864 394.545,168.864 C 412.118,168.864 439.091,163.165 439.091,156.136"/>
    <path style="fill: none; fill-opacity:0; stroke-width: 2; stroke: #000000" d="M 350 167.273 C 350,174.302 376.973,180 394.545,180 C 412.118,180 439.091,174.302 439.091,167.273"/>
    <text font-size="12.7998" style="fill: #000000;text-anchor:middle;font-family:sans-serif;font-style:normal;font-weight:normal" x="394.545" y="196.182">
      <tspan x="394.545" y="196.182">Back</tspan>
    </text>
  </g>
  <g>
    <line style="fill: none; fill-opacity:0; stroke-width: 2; stroke: #000000" x1="170" y1="120" x2="139.736" y2="120"/>
    <polygon style="fill: #000000" points="132.236,120 142.236,115 139.736,120 142.236,125 "/>
    <polygon style="fill: none; fill-opacity:0; stroke-width: 2; stroke: #000000" points="132.236,120 142.236,115 139.736,120 142.236,125 "/>
  </g>
  <g>
    <line style="fill: none; fill-opacity:0; stroke-width: 2; stroke: #000000" x1="130" y1="170" x2="160.264" y2="170"/>
    <polygon style="fill: #000000" points="167.764,170 157.764,175 160.264,170 157.764,165 "/>
    <polygon style="fill: none; fill-opacity:0; stroke-width: 2; stroke: #000000" points="167.764,170 157.764,175 160.264,170 157.764,165 "/>
  </g>
  <g>
    <line style="fill: none; fill-opacity:0; stroke-width: 2; stroke: #000000" x1="300" y1="170" x2="330.264" y2="170"/>
    <polygon style="fill: #000000" points="337.764,170 327.764,175 330.264,170 327.764,165 "/>
    <polygon style="fill: none; fill-opacity:0; stroke-width: 2; stroke: #000000" points="337.764,170 327.764,175 330.264,170 327.764,165 "/>
  </g>
  <g>
    <line style="fill: none; fill-opacity:0; stroke-width: 2; stroke: #000000" x1="340" y1="120" x2="309.736" y2="120"/>
    <polygon style="fill: #000000" points="302.236,120 312.236,115 309.736,120 312.236,125 "/>
    <polygon style="fill: none; fill-opacity:0; stroke-width: 2; stroke: #000000" points="302.236,120 312.236,115 309.736,120 312.236,125 "/>
  </g>
  <text font-size="12.7998" style="fill: #000000;text-anchor:middle;font-family:sans-serif;font-style:normal;font-weight:normal" x="240" y="195.075">
    <tspan x="240" y="195.075">Front</tspan>
  </text>
  <text font-size="12.7998" style="fill: #000000;text-anchor:middle;font-family:sans-serif;font-style:normal;font-weight:normal" x="70" y="195.075">
    <tspan x="70" y="195.075">User</tspan>
  </text>
</svg>
