<?xml version="1.0" encoding="UTF-8" standalone="no"?>
<!DOCTYPE svg PUBLIC "-//W3C//DTD SVG 1.0//EN" "http://www.w3.org/TR/2001/PR-SVG-20010719/DTD/svg10.dtd">
<svg width="23cm" height="14cm" viewBox="19 18 443 263" xmlns="http://www.w3.org/2000/svg" xmlns:xlink="http://www.w3.org/1999/xlink">
  <g>
    <line style="fill: none; fill-opacity:0; stroke-width: 2; stroke: #000000" x1="170" y1="220" x2="190.264" y2="220"/>
    <polygon style="fill: #000000" points="197.764,220 187.764,225 190.264,220 187.764,215 "/>
    <polygon style="fill: none; fill-opacity:0; stroke-width: 2; stroke: #000000" points="197.764,220 187.764,225 190.264,220 187.764,215 "/>
  </g>
  <g>
    <ellipse style="fill: #0000ff" cx="220" cy="220" rx="10" ry="10"/>
    <ellipse style="fill: none; fill-opacity:0; stroke-width: 2; stroke: #000000" cx="220" cy="220" rx="10" ry="10"/>
  </g>
  <text font-size="12.7998" style="fill: #ffffff;text-anchor:middle;font-family:sans-serif;font-style:normal;font-weight:normal" x="220" y="225.075">
    <tspan x="220" y="225.075">L</tspan>
  </text>
  <g>
    <ellipse style="fill: #0000ff" cx="260" cy="200" rx="10" ry="10"/>
    <ellipse style="fill: none; fill-opacity:0; stroke-width: 2; stroke: #000000" cx="260" cy="200" rx="10" ry="10"/>
  </g>
  <text font-size="12.7998" style="fill: #ffffff;text-anchor:middle;font-family:sans-serif;font-style:normal;font-weight:normal" x="260" y="205.075">
    <tspan x="260" y="205.075">I</tspan>
  </text>
  <polyline style="fill: none; fill-opacity:0; stroke-width: 2; stroke: #000000" points="229.766,215.117 250.234,204.883 "/>
  <polyline style="fill: none; fill-opacity:0; stroke-width: 2; stroke: #000000" points="229.766,224.883 260,240 "/>
  <g>
    <ellipse style="fill: #0000ff" cx="300" cy="200" rx="10" ry="10"/>
    <ellipse style="fill: none; fill-opacity:0; stroke-width: 2; stroke: #000000" cx="300" cy="200" rx="10" ry="10"/>
  </g>
  <text font-size="12.7998" style="fill: #ffffff;text-anchor:middle;font-family:sans-serif;font-style:normal;font-weight:normal" x="300" y="205.075">
    <tspan x="300" y="205.075">T</tspan>
  </text>
  <polyline style="fill: none; fill-opacity:0; stroke-width: 2; stroke: #000000" points="270.977,200 289.023,200 "/>
  <g>
    <ellipse style="fill: #0000ff" cx="300" cy="170" rx="10" ry="10"/>
    <ellipse style="fill: none; fill-opacity:0; stroke-width: 2; stroke: #000000" cx="300" cy="170" rx="10" ry="10"/>
  </g>
  <polyline style="fill: none; fill-opacity:0; stroke-width: 2; stroke: #000000" points="268.799,193.401 291.201,176.599 "/>
  <text font-size="12.7998" style="fill: #ffffff;text-anchor:middle;font-family:sans-serif;font-style:normal;font-weight:normal" x="300" y="175.075">
    <tspan x="300" y="175.075">D</tspan>
  </text>
  <text font-size="12.7998" style="fill: #000000;text-anchor:middle;font-family:sans-serif;font-style:normal;font-weight:normal" x="110" y="35.075">
    <tspan x="110" y="35.075">filter: visible</tspan>
  </text>
  <g>
    <line style="fill: none; fill-opacity:0; stroke-width: 2; stroke: #000000" x1="110" y1="90" x2="110" y2="110.264"/>
    <polygon style="fill: #000000" points="110,117.764 105,107.764 110,110.264 115,107.764 "/>
    <polygon style="fill: none; fill-opacity:0; stroke-width: 2; stroke: #000000" points="110,117.764 105,107.764 110,110.264 115,107.764 "/>
  </g>
  <g>
    <line style="fill: none; fill-opacity:0; stroke-width: 2; stroke: #000000" x1="20" y1="150" x2="40.2639" y2="150"/>
    <polygon style="fill: #000000" points="47.7639,150 37.7639,155 40.2639,150 37.7639,145 "/>
    <polygon style="fill: none; fill-opacity:0; stroke-width: 2; stroke: #000000" points="47.7639,150 37.7639,155 40.2639,150 37.7639,145 "/>
  </g>
  <g>
    <rect style="fill: #e5e5e5" x="60" y="40" width="100" height="40"/>
    <rect style="fill: none; fill-opacity:0; stroke-width: 2; stroke: #000000" x="60" y="40" width="100" height="40"/>
  </g>
  <g>
    <line style="fill: none; fill-opacity:0; stroke-width: 2; stroke: #000000" x1="160" y1="210" x2="160" y2="250"/>
    <line style="fill: none; fill-opacity:0; stroke-width: 2; stroke: #000000" x1="60" y1="210" x2="60" y2="250"/>
    <text font-size="12.7998" style="fill: #000000;text-anchor:middle;font-family:sans-serif;font-style:normal;font-weight:normal" x="110" y="235.075">
      <tspan x="110" y="235.075">9 tasks</tspan>
    </text>
  </g>
  <g>
    <g>
      <rect style="fill: #e5e5e5" x="60" y="130" width="100" height="40"/>
      <rect style="fill: none; fill-opacity:0; stroke-width: 2; stroke: #000000" x="60" y="130" width="100" height="40"/>
    </g>
    <g>
      <ellipse style="fill: #ffffff" cx="80" cy="150" rx="10" ry="10"/>
      <ellipse style="fill: none; fill-opacity:0; stroke-width: 2; stroke: #000000" cx="80" cy="150" rx="10" ry="10"/>
    </g>
    <text font-size="12.7998" style="fill: #000000;text-anchor:middle;font-family:sans-serif;font-style:normal;font-weight:normal" x="80" y="155.075">
      <tspan x="80" y="155.075">D</tspan>
    </text>
    <g>
      <ellipse style="fill: #ffffff" cx="110" cy="150" rx="10" ry="10"/>
      <ellipse style="fill: none; fill-opacity:0; stroke-width: 2; stroke: #000000" cx="110" cy="150" rx="10" ry="10"/>
    </g>
    <text font-size="12.7998" style="fill: #000000;text-anchor:middle;font-family:sans-serif;font-style:normal;font-weight:normal" x="110" y="155.075">
      <tspan x="110" y="155.075">2</tspan>
    </text>
    <g>
      <ellipse style="fill: #ff0000" cx="140" cy="150" rx="10" ry="10"/>
      <ellipse style="fill: none; fill-opacity:0; stroke-width: 2; stroke: #000000" cx="140" cy="150" rx="10" ry="10"/>
    </g>
    <text font-size="12.7998" style="fill: #ffffff;text-anchor:middle;font-family:sans-serif;font-style:normal;font-weight:normal" x="140" y="155.075">
      <tspan x="140" y="155.075">O</tspan>
    </text>
  </g>
  <g>
    <g>
      <rect style="fill: #e5e5e5" x="60" y="170" width="100" height="40"/>
      <rect style="fill: none; fill-opacity:0; stroke-width: 2; stroke: #000000" x="60" y="170" width="100" height="40"/>
    </g>
    <g>
      <ellipse style="fill: #ffffff" cx="80" cy="190" rx="10" ry="10"/>
      <ellipse style="fill: none; fill-opacity:0; stroke-width: 2; stroke: #000000" cx="80" cy="190" rx="10" ry="10"/>
    </g>
    <text font-size="12.7998" style="fill: #000000;text-anchor:middle;font-family:sans-serif;font-style:normal;font-weight:normal" x="80" y="195.075">
      <tspan x="80" y="195.075">A</tspan>
    </text>
    <g>
      <ellipse style="fill: #ffffff" cx="110" cy="190" rx="10" ry="10"/>
      <ellipse style="fill: none; fill-opacity:0; stroke-width: 2; stroke: #000000" cx="110" cy="190" rx="10" ry="10"/>
    </g>
    <text font-size="12.7998" style="fill: #000000;text-anchor:middle;font-family:sans-serif;font-style:normal;font-weight:normal" x="110" y="195.075">
      <tspan x="110" y="195.075">3</tspan>
    </text>
    <g>
      <ellipse style="fill: #ff0000" cx="140" cy="190" rx="10" ry="10"/>
      <ellipse style="fill: none; fill-opacity:0; stroke-width: 2; stroke: #000000" cx="140" cy="190" rx="10" ry="10"/>
    </g>
    <text font-size="12.7998" style="fill: #ffffff;text-anchor:middle;font-family:sans-serif;font-style:normal;font-weight:normal" x="140" y="195.075">
      <tspan x="140" y="195.075">O</tspan>
    </text>
  </g>
  <text font-size="12.7998" style="fill: #000000;text-anchor:end;font-family:sans-serif;font-style:normal;font-weight:normal" x="130" y="57.075">
    <tspan x="130" y="57.075">from: 1</tspan>
    <tspan x="130" y="73.075">to: 9</tspan>
  </text>
  <text font-size="12.7998" style="fill: #000000;text-anchor:middle;font-family:sans-serif;font-style:normal;font-weight:normal" x="60" y="125.075">
    <tspan x="60" y="125.075">1 ms</tspan>
  </text>
  <g>
    <line style="fill: none; fill-opacity:0; stroke-width: 2; stroke: #000000" x1="320" y1="150" x2="340.264" y2="150"/>
    <polygon style="fill: #000000" points="347.764,150 337.764,155 340.264,150 337.764,145 "/>
    <polygon style="fill: none; fill-opacity:0; stroke-width: 2; stroke: #000000" points="347.764,150 337.764,155 340.264,150 337.764,145 "/>
  </g>
  <polyline style="fill: none; fill-opacity:0; stroke-width: 2; stroke: #000000" points="379.766,145.117 410,130 "/>
  <g>
    <ellipse style="fill: #e5e5e5" cx="410" cy="170" rx="10" ry="10"/>
    <ellipse style="fill: none; fill-opacity:0; stroke-width: 2; stroke: #000000" cx="410" cy="170" rx="10" ry="10"/>
  </g>
  <text font-size="12.7998" style="fill: #000000;text-anchor:middle;font-family:sans-serif;font-style:normal;font-weight:normal" x="410" y="175.075">
    <tspan x="410" y="175.075">I</tspan>
  </text>
  <polyline style="fill: none; fill-opacity:0; stroke-width: 2; stroke: #000000" points="370,150 400.234,165.117 "/>
  <g>
    <ellipse style="fill: #0000ff" cx="450" cy="130" rx="10" ry="10"/>
    <ellipse style="fill: none; fill-opacity:0; stroke-width: 2; stroke: #000000" cx="450" cy="130" rx="10" ry="10"/>
  </g>
  <text font-size="12.7998" style="fill: #ffffff;text-anchor:middle;font-family:sans-serif;font-style:normal;font-weight:normal" x="450" y="135.075">
    <tspan x="450" y="135.075">T</tspan>
  </text>
  <polyline style="fill: none; fill-opacity:0; stroke-width: 2; stroke: #000000" points="410,130 439.023,130 "/>
  <g>
    <ellipse style="fill: #e5e5e5" cx="450" cy="100" rx="10" ry="10"/>
    <ellipse style="fill: none; fill-opacity:0; stroke-width: 2; stroke: #000000" cx="450" cy="100" rx="10" ry="10"/>
  </g>
  <polyline style="fill: none; fill-opacity:0; stroke-width: 2; stroke: #000000" points="410,130 441.201,106.599 "/>
  <text font-size="12.7998" style="fill: #000000;text-anchor:middle;font-family:sans-serif;font-style:normal;font-weight:normal" x="450" y="105.075">
    <tspan x="450" y="105.075">D</tspan>
  </text>
  <g>
    <ellipse style="fill: #e5e5e5" cx="450" cy="200" rx="10" ry="10"/>
    <ellipse style="fill: none; fill-opacity:0; stroke-width: 2; stroke: #000000" cx="450" cy="200" rx="10" ry="10"/>
  </g>
  <text font-size="12.7998" style="fill: #000000;text-anchor:middle;font-family:sans-serif;font-style:normal;font-weight:normal" x="450" y="205.075">
    <tspan x="450" y="205.075">T</tspan>
  </text>
  <polyline style="fill: none; fill-opacity:0; stroke-width: 2; stroke: #000000" points="418.799,176.599 441.201,193.401 "/>
  <g>
    <ellipse style="fill: #e5e5e5" cx="450" cy="170" rx="10" ry="10"/>
    <ellipse style="fill: none; fill-opacity:0; stroke-width: 2; stroke: #000000" cx="450" cy="170" rx="10" ry="10"/>
  </g>
  <polyline style="fill: none; fill-opacity:0; stroke-width: 2; stroke: #000000" points="420.977,170 439.023,170 "/>
  <text font-size="12.7998" style="fill: #000000;text-anchor:middle;font-family:sans-serif;font-style:normal;font-weight:normal" x="450" y="175.075">
    <tspan x="450" y="175.075">D</tspan>
  </text>
  <g>
    <ellipse style="fill: #e5e5e5" cx="220" cy="80" rx="10" ry="10"/>
    <ellipse style="fill: none; fill-opacity:0; stroke-width: 2; stroke: #000000" cx="220" cy="80" rx="10" ry="10"/>
  </g>
  <text font-size="12.7998" style="fill: #000000;text-anchor:middle;font-family:sans-serif;font-style:normal;font-weight:normal" x="220" y="85.075">
    <tspan x="220" y="85.075">L</tspan>
  </text>
  <g>
    <ellipse style="fill: #e5e5e5" cx="260" cy="60" rx="10" ry="10"/>
    <ellipse style="fill: none; fill-opacity:0; stroke-width: 2; stroke: #000000" cx="260" cy="60" rx="10" ry="10"/>
  </g>
  <text font-size="12.7998" style="fill: #000000;text-anchor:middle;font-family:sans-serif;font-style:normal;font-weight:normal" x="260" y="65.075">
    <tspan x="260" y="65.075">I</tspan>
  </text>
  <polyline style="fill: none; fill-opacity:0; stroke-width: 2; stroke: #000000" points="229.766,75.1172 250.234,64.8828 "/>
  <g>
    <ellipse style="fill: #e5e5e5" cx="260" cy="100" rx="10" ry="10"/>
    <ellipse style="fill: none; fill-opacity:0; stroke-width: 2; stroke: #000000" cx="260" cy="100" rx="10" ry="10"/>
  </g>
  <text font-size="12.7998" style="fill: #000000;text-anchor:middle;font-family:sans-serif;font-style:normal;font-weight:normal" x="260" y="105.075">
    <tspan x="260" y="105.075">I</tspan>
  </text>
  <polyline style="fill: none; fill-opacity:0; stroke-width: 2; stroke: #000000" points="229.766,84.8828 250.234,95.1172 "/>
  <g>
    <ellipse style="fill: #e5e5e5" cx="300" cy="60" rx="10" ry="10"/>
    <ellipse style="fill: none; fill-opacity:0; stroke-width: 2; stroke: #000000" cx="300" cy="60" rx="10" ry="10"/>
  </g>
  <text font-size="12.7998" style="fill: #000000;text-anchor:middle;font-family:sans-serif;font-style:normal;font-weight:normal" x="300" y="65.075">
    <tspan x="300" y="65.075">T</tspan>
  </text>
  <polyline style="fill: none; fill-opacity:0; stroke-width: 2; stroke: #000000" points="270.977,60 289.023,60 "/>
  <g>
    <ellipse style="fill: #e5e5e5" cx="300" cy="30" rx="10" ry="10"/>
    <ellipse style="fill: none; fill-opacity:0; stroke-width: 2; stroke: #000000" cx="300" cy="30" rx="10" ry="10"/>
  </g>
  <polyline style="fill: none; fill-opacity:0; stroke-width: 2; stroke: #000000" points="268.799,53.4009 291.201,36.5991 "/>
  <text font-size="12.7998" style="fill: #000000;text-anchor:middle;font-family:sans-serif;font-style:normal;font-weight:normal" x="300" y="35.075">
    <tspan x="300" y="35.075">D</tspan>
  </text>
  <g>
    <ellipse style="fill: #e5e5e5" cx="300" cy="130" rx="10" ry="10"/>
    <ellipse style="fill: none; fill-opacity:0; stroke-width: 2; stroke: #000000" cx="300" cy="130" rx="10" ry="10"/>
  </g>
  <text font-size="12.7998" style="fill: #000000;text-anchor:middle;font-family:sans-serif;font-style:normal;font-weight:normal" x="300" y="135.075">
    <tspan x="300" y="135.075">T</tspan>
  </text>
  <polyline style="fill: none; fill-opacity:0; stroke-width: 2; stroke: #000000" points="268.799,106.599 291.201,123.401 "/>
  <g>
    <ellipse style="fill: #e5e5e5" cx="300" cy="100" rx="10" ry="10"/>
    <ellipse style="fill: none; fill-opacity:0; stroke-width: 2; stroke: #000000" cx="300" cy="100" rx="10" ry="10"/>
  </g>
  <polyline style="fill: none; fill-opacity:0; stroke-width: 2; stroke: #000000" points="270.977,100 289.023,100 "/>
  <text font-size="12.7998" style="fill: #000000;text-anchor:middle;font-family:sans-serif;font-style:normal;font-weight:normal" x="300" y="105.075">
    <tspan x="300" y="105.075">D</tspan>
  </text>
  <line style="fill: none; fill-opacity:0; stroke-width: 2; stroke: #000000" x1="320" y1="20" x2="320" y2="280"/>
  <text font-size="12.7998" style="fill: #000000;text-anchor:middle;font-family:sans-serif;font-style:normal;font-weight:normal" x="220" y="205.075">
    <tspan x="220" y="205.075">10 ms</tspan>
  </text>
  <text font-size="12.7998" style="fill: #000000;text-anchor:middle;font-family:sans-serif;font-style:normal;font-weight:normal" x="370" y="134.882">
    <tspan x="370" y="134.882">20 ms</tspan>
  </text>
  <g>
    <ellipse style="fill: #e5e5e5" cx="260" cy="240" rx="10" ry="10"/>
    <ellipse style="fill: none; fill-opacity:0; stroke-width: 2; stroke: #000000" cx="260" cy="240" rx="10" ry="10"/>
  </g>
  <text font-size="12.7998" style="fill: #000000;text-anchor:middle;font-family:sans-serif;font-style:normal;font-weight:normal" x="260" y="245.075">
    <tspan x="260" y="245.075">I</tspan>
  </text>
  <g>
    <ellipse style="fill: #e5e5e5" cx="300" cy="270" rx="10" ry="10"/>
    <ellipse style="fill: none; fill-opacity:0; stroke-width: 2; stroke: #000000" cx="300" cy="270" rx="10" ry="10"/>
  </g>
  <text font-size="12.7998" style="fill: #000000;text-anchor:middle;font-family:sans-serif;font-style:normal;font-weight:normal" x="300" y="275.075">
    <tspan x="300" y="275.075">T</tspan>
  </text>
  <polyline style="fill: none; fill-opacity:0; stroke-width: 2; stroke: #000000" points="268.799,246.599 291.201,263.401 "/>
  <g>
    <ellipse style="fill: #e5e5e5" cx="300" cy="240" rx="10" ry="10"/>
    <ellipse style="fill: none; fill-opacity:0; stroke-width: 2; stroke: #000000" cx="300" cy="240" rx="10" ry="10"/>
  </g>
  <polyline style="fill: none; fill-opacity:0; stroke-width: 2; stroke: #000000" points="270.977,240 289.023,240 "/>
  <text font-size="12.7998" style="fill: #000000;text-anchor:middle;font-family:sans-serif;font-style:normal;font-weight:normal" x="300" y="245.075">
    <tspan x="300" y="245.075">D</tspan>
  </text>
  <g>
    <ellipse style="fill: #e5e5e5" cx="370" cy="150" rx="10" ry="10"/>
    <ellipse style="fill: none; fill-opacity:0; stroke-width: 2; stroke: #000000" cx="370" cy="150" rx="10" ry="10"/>
  </g>
  <text font-size="12.7998" style="fill: #000000;text-anchor:middle;font-family:sans-serif;font-style:normal;font-weight:normal" x="370" y="155.075">
    <tspan x="370" y="155.075">L</tspan>
  </text>
  <g>
    <ellipse style="fill: #e5e5e5" cx="410" cy="130" rx="10" ry="10"/>
    <ellipse style="fill: none; fill-opacity:0; stroke-width: 2; stroke: #000000" cx="410" cy="130" rx="10" ry="10"/>
  </g>
  <text font-size="12.7998" style="fill: #000000;text-anchor:middle;font-family:sans-serif;font-style:normal;font-weight:normal" x="410" y="135.075">
    <tspan x="410" y="135.075">I</tspan>
  </text>
</svg>
