<?xml version="1.0" encoding="UTF-8" standalone="no"?>
<!DOCTYPE svg PUBLIC "-//W3C//DTD SVG 1.0//EN" "http://www.w3.org/TR/2001/PR-SVG-20010719/DTD/svg10.dtd">
<svg width="22cm" height="9cm" viewBox="18 54 433 177" xmlns="http://www.w3.org/2000/svg" xmlns:xlink="http://www.w3.org/1999/xlink">
  <path style="fill: none; fill-opacity:0; stroke-width: 2; stroke: #000000" d="M 120,220 A 50.0001,50.0001 0 1 0 20,220"/>
  <g>
    <ellipse style="fill: #ffffff" cx="70" cy="150" rx="30" ry="30"/>
    <ellipse style="fill: none; fill-opacity:0; stroke-width: 2; stroke: #000000" cx="70" cy="150" rx="30" ry="30"/>
    <ellipse style="fill: none; fill-opacity:0; stroke-width: 2; stroke: #000000" cx="70" cy="150" rx="30" ry="30"/>
  </g>
  <g>
    <ellipse style="fill: #ff0000" cx="55" cy="145" rx="5" ry="5"/>
    <ellipse style="fill: none; fill-opacity:0; stroke-width: 2; stroke: #000000" cx="55" cy="145" rx="5" ry="5"/>
    <ellipse style="fill: none; fill-opacity:0; stroke-width: 2; stroke: #000000" cx="55" cy="145" rx="5" ry="5"/>
  </g>
  <g>
    <ellipse style="fill: #ff0000" cx="85" cy="145" rx="5" ry="5"/>
    <ellipse style="fill: none; fill-opacity:0; stroke-width: 2; stroke: #000000" cx="85" cy="145" rx="5" ry="5"/>
    <ellipse style="fill: none; fill-opacity:0; stroke-width: 2; stroke: #000000" cx="85" cy="145" rx="5" ry="5"/>
  </g>
  <g>
    <rect style="fill: #ffffff" x="360" y="152.727" width="89.0909" height="44.5455"/>
    <ellipse style="fill: #ffffff" cx="404.545" cy="197.273" rx="44.5455" ry="12.7273"/>
    <ellipse style="fill: #ffffff" cx="404.545" cy="152.727" rx="44.5455" ry="12.7273"/>
    <path style="fill: none; fill-opacity:0; stroke-width: 2; stroke: #000000" d="M 360 152.727 L 360,197.273"/>
    <path style="fill: none; fill-opacity:0; stroke-width: 2; stroke: #000000" d="M 449.091 152.727 L 449.091,197.273"/>
    <path style="fill: none; fill-opacity:0; stroke-width: 2; stroke: #000000" d="M 360 152.727 C 360,145.698 386.973,140 404.545,140 C 422.118,140 449.091,145.698 449.091,152.727"/>
    <path style="fill: none; fill-opacity:0; stroke-width: 2; stroke: #000000" d="M 360 152.727 C 360,159.756 386.973,165.455 404.545,165.455 C 422.118,165.455 449.091,159.756 449.091,152.727"/>
    <path style="fill: none; fill-opacity:0; stroke-width: 2; stroke: #000000" d="M 360 163.864 C 360,170.893 386.973,176.591 404.545,176.591 C 422.118,176.591 449.091,170.893 449.091,163.864"/>
    <path style="fill: none; fill-opacity:0; stroke-width: 2; stroke: #000000" d="M 360 175 C 360,182.029 386.973,187.727 404.545,187.727 C 422.118,187.727 449.091,182.029 449.091,175"/>
    <path style="fill: none; fill-opacity:0; stroke-width: 2; stroke: #000000" d="M 360 186.136 C 360,193.165 386.973,198.864 404.545,198.864 C 422.118,198.864 449.091,193.165 449.091,186.136"/>
    <path style="fill: none; fill-opacity:0; stroke-width: 2; stroke: #000000" d="M 360 197.273 C 360,204.302 386.973,210 404.545,210 C 422.118,210 449.091,204.302 449.091,197.273"/>
    <text font-size="12.7998" style="fill: #000000;text-anchor:middle;font-family:sans-serif;font-style:normal;font-weight:normal" x="404.545" y="226.182">
      <tspan x="404.545" y="226.182">Back</tspan>
    </text>
  </g>
  <text font-size="12.7998" style="fill: #000000;text-anchor:middle;font-family:sans-serif;font-style:normal;font-weight:normal" x="240" y="225.075">
    <tspan x="240" y="225.075">Front</tspan>
  </text>
  <text font-size="12.7998" style="fill: #000000;text-anchor:middle;font-family:sans-serif;font-style:normal;font-weight:normal" x="70" y="225.075">
    <tspan x="70" y="225.075">User</tspan>
  </text>
  <g>
    <ellipse style="fill: #ffffff" cx="200" cy="120" rx="10" ry="10"/>
    <ellipse style="fill: none; fill-opacity:0; stroke-width: 2; stroke: #000000" cx="200" cy="120" rx="10" ry="10"/>
    <ellipse style="fill: none; fill-opacity:0; stroke-width: 2; stroke: #000000" cx="200" cy="120" rx="10" ry="10"/>
  </g>
  <g>
    <ellipse style="fill: #ffffff" cx="160" cy="170" rx="10" ry="10"/>
    <ellipse style="fill: none; fill-opacity:0; stroke-width: 2; stroke: #000000" cx="160" cy="170" rx="10" ry="10"/>
    <ellipse style="fill: none; fill-opacity:0; stroke-width: 2; stroke: #000000" cx="160" cy="170" rx="10" ry="10"/>
  </g>
  <g>
    <line style="fill: none; fill-opacity:0; stroke-width: 2; stroke: #000000" x1="149.233" y1="167.847" x2="119.547" y2="161.909"/>
    <polygon style="fill: #000000" points="112.193,160.439 122.979,157.497 119.547,161.909 121.018,167.303 "/>
    <polygon style="fill: none; fill-opacity:0; stroke-width: 2; stroke: #000000" points="112.193,160.439 122.979,157.497 119.547,161.909 121.018,167.303 "/>
  </g>
  <g>
    <ellipse style="fill: #ffffff" cx="250" cy="90" rx="10" ry="10"/>
    <ellipse style="fill: none; fill-opacity:0; stroke-width: 2; stroke: #000000" cx="250" cy="90" rx="10" ry="10"/>
    <ellipse style="fill: none; fill-opacity:0; stroke-width: 2; stroke: #000000" cx="250" cy="90" rx="10" ry="10"/>
  </g>
  <text font-size="12.7998" style="fill: #000000;text-anchor:middle;font-family:sans-serif;font-style:normal;font-weight:normal" x="250" y="95.075">
    <tspan x="250" y="95.075">R</tspan>
  </text>
  <text font-size="12.7998" style="fill: #000000;text-anchor:middle;font-family:sans-serif;font-style:normal;font-weight:normal" x="200" y="125.075">
    <tspan x="200" y="125.075">P</tspan>
  </text>
  <text font-size="12.7998" style="fill: #000000;text-anchor:middle;font-family:sans-serif;font-style:normal;font-weight:normal" x="160" y="175.075">
    <tspan x="160" y="175.075">W</tspan>
  </text>
  <g>
    <line style="fill: none; fill-opacity:0; stroke-width: 2; stroke: #000000" x1="130" y1="200" x2="145.345" y2="184.655"/>
    <polygon style="fill: #000000" points="150.648,179.352 147.112,189.959 145.345,184.655 140.041,182.888 "/>
    <polygon style="fill: none; fill-opacity:0; stroke-width: 2; stroke: #000000" points="150.648,179.352 147.112,189.959 145.345,184.655 140.041,182.888 "/>
  </g>
  <g>
    <ellipse style="fill: #ffffff" cx="310" cy="80" rx="10" ry="10"/>
    <ellipse style="fill: none; fill-opacity:0; stroke-width: 2; stroke: #000000" cx="310" cy="80" rx="10" ry="10"/>
    <ellipse style="fill: none; fill-opacity:0; stroke-width: 2; stroke: #000000" cx="310" cy="80" rx="10" ry="10"/>
  </g>
  <text font-size="12.7998" style="fill: #000000;text-anchor:middle;font-family:sans-serif;font-style:normal;font-weight:normal" x="310" y="85.075">
    <tspan x="310" y="85.075">M</tspan>
  </text>
  <g>
    <line style="fill: none; fill-opacity:0; stroke-width: 2; stroke: #000000" x1="316.099" y1="89.1479" x2="344.599" y2="131.899"/>
    <polygon style="fill: #000000" points="348.76,138.139 339.052,132.592 344.599,131.899 347.373,127.045 "/>
    <polygon style="fill: none; fill-opacity:0; stroke-width: 2; stroke: #000000" points="348.76,138.139 339.052,132.592 344.599,131.899 347.373,127.045 "/>
  </g>
  <g>
    <line style="fill: none; fill-opacity:0; stroke-width: 2; stroke: #000000" x1="390" y1="130" x2="327.573" y2="90.9829"/>
    <polygon style="fill: #000000" points="321.213,87.0079 332.343,88.0679 327.573,90.9829 327.043,96.5478 "/>
    <polygon style="fill: none; fill-opacity:0; stroke-width: 2; stroke: #000000" points="321.213,87.0079 332.343,88.0679 327.573,90.9829 327.043,96.5478 "/>
  </g>
  <path style="fill: none; fill-opacity:0; stroke-width: 2; stroke: #000000" d="M 80,170 A 10,10 0 1 0 60,170"/>
  <g>
    <path style="fill: none; fill-opacity:0; stroke-width: 2; stroke: #000000" d="M 170.25,166.35 A 52.3461,52.3461 0 0 0 195.695,139.935"/>
    <polygon style="fill: #000000" points="198.191,132.981 200.835,143.844 196.518,140.292 191.087,141.614 "/>
    <polygon style="fill: none; fill-opacity:0; stroke-width: 2; stroke: #000000" points="198.191,132.981 200.835,143.844 196.518,140.292 191.087,141.614 "/>
  </g>
  <g>
    <path style="fill: none; fill-opacity:0; stroke-width: 2; stroke: #000000" d="M 210.984,120.639 A 44.0227,44.0227 0 0 0 239.487,107.512"/>
    <polygon style="fill: #000000" points="244.213,101.891 243.169,113.022 240.247,108.256 234.681,107.735 "/>
    <polygon style="fill: none; fill-opacity:0; stroke-width: 2; stroke: #000000" points="244.213,101.891 243.169,113.022 240.247,108.256 234.681,107.735 "/>
  </g>
  <g>
    <path style="fill: none; fill-opacity:0; stroke-width: 2; stroke: #000000" d="M 259.483,95.5789 A 41.1809,41.1809 0 0 0 295.031,93.8332"/>
    <polygon style="fill: #000000" points="301.17,89.8409 297.032,100.228 295.571,94.8317 290.378,92.763 "/>
    <polygon style="fill: none; fill-opacity:0; stroke-width: 2; stroke: #000000" points="301.17,89.8409 297.032,100.228 295.571,94.8317 290.378,92.763 "/>
  </g>
  <g>
    <path style="fill: none; fill-opacity:0; stroke-width: 2; stroke: #000000" d="M 239.037,89.2468 A 43.4357,43.4357 0 0 0 210.343,102.412"/>
    <polygon style="fill: #000000" points="205.66,108.064 206.604,96.9237 209.568,101.663 215.139,102.135 "/>
    <polygon style="fill: none; fill-opacity:0; stroke-width: 2; stroke: #000000" points="205.66,108.064 206.604,96.9237 209.568,101.663 215.139,102.135 "/>
  </g>
  <g>
    <path style="fill: none; fill-opacity:0; stroke-width: 2; stroke: #000000" d="M 189.75,123.65 A 52.3461,52.3461 0 0 0 164.305,150.065"/>
    <polygon style="fill: #000000" points="161.809,157.019 159.165,146.156 163.482,149.708 168.913,148.386 "/>
    <polygon style="fill: none; fill-opacity:0; stroke-width: 2; stroke: #000000" points="161.809,157.019 159.165,146.156 163.482,149.708 168.913,148.386 "/>
  </g>
  <g>
    <path style="fill: none; fill-opacity:0; stroke-width: 2; stroke: #000000" d="M 300.517,74.4211 A 41.1809,41.1809 0 0 0 264.969,76.1668"/>
    <polygon style="fill: #000000" points="258.83,80.1591 262.968,69.7725 264.429,75.1683 269.622,77.237 "/>
    <polygon style="fill: none; fill-opacity:0; stroke-width: 2; stroke: #000000" points="258.83,80.1591 262.968,69.7725 264.429,75.1683 269.622,77.237 "/>
  </g>
  <text font-size="12.8" style="fill: #000000;text-anchor:middle;font-family:sans-serif;font-style:normal;font-weight:normal" x="140" y="207.35">
    <tspan x="140" y="207.35">1</tspan>
  </text>
  <text font-size="12.8" style="fill: #000000;text-anchor:middle;font-family:sans-serif;font-style:normal;font-weight:normal" x="140" y="157.35">
    <tspan x="140" y="157.35">2</tspan>
  </text>
  <text font-size="12.8" style="fill: #000000;text-anchor:middle;font-family:sans-serif;font-style:normal;font-weight:normal" x="190" y="167.35">
    <tspan x="190" y="167.35">3</tspan>
  </text>
  <text font-size="12.8" style="fill: #000000;text-anchor:middle;font-family:sans-serif;font-style:normal;font-weight:normal" x="170" y="127.35">
    <tspan x="170" y="127.35">4</tspan>
  </text>
  <text font-size="12.8" style="fill: #000000;text-anchor:middle;font-family:sans-serif;font-style:normal;font-weight:normal" x="240" y="127.35">
    <tspan x="240" y="127.35">5</tspan>
  </text>
  <text font-size="12.8" style="fill: #000000;text-anchor:middle;font-family:sans-serif;font-style:normal;font-weight:normal" x="220" y="87.35">
    <tspan x="220" y="87.35">6</tspan>
  </text>
  <text font-size="12.8" style="fill: #000000;text-anchor:middle;font-family:sans-serif;font-style:normal;font-weight:normal" x="280" y="117.35">
    <tspan x="280" y="117.35">7</tspan>
  </text>
  <text font-size="12.8" style="fill: #000000;text-anchor:middle;font-family:sans-serif;font-style:normal;font-weight:normal" x="280" y="67.35">
    <tspan x="280" y="67.35">8</tspan>
  </text>
  <text font-size="12.8" style="fill: #000000;text-anchor:middle;font-family:sans-serif;font-style:normal;font-weight:normal" x="330" y="127.35">
    <tspan x="330" y="127.35">9</tspan>
  </text>
  <text font-size="12.8" style="fill: #000000;text-anchor:middle;font-family:sans-serif;font-style:normal;font-weight:normal" x="370" y="107.35">
    <tspan x="370" y="107.35">10</tspan>
  </text>
</svg>
