<?xml version="1.0" encoding="UTF-8"?>
<!DOCTYPE svg PUBLIC "-//W3C//DTD SVG 1.1//EN" "http://www.w3.org/Graphics/SVG/1.1/DTD/svg11.dtd">
<svg xmlns="http://www.w3.org/2000/svg" xmlns:xlink="http://www.w3.org/1999/xlink" version="1.1" width="343px" height="598px" viewBox="-0.5 -0.5 343 598"><defs/><g><ellipse cx="211" cy="158" rx="20" ry="20" fill="#f8cecc" stroke="#b85450" stroke-width="3" pointer-events="all"/><ellipse cx="211" cy="198" rx="20" ry="20" fill="#f8cecc" stroke="#b85450" stroke-width="3" pointer-events="all"/><ellipse cx="211" cy="238" rx="20" ry="20" fill="#f8cecc" stroke="#b85450" stroke-width="3" pointer-events="all"/><ellipse cx="251" cy="178" rx="20" ry="20" fill="#f8cecc" stroke="#b85450" stroke-width="3" pointer-events="all"/><ellipse cx="251" cy="218" rx="20" ry="20" fill="#f8cecc" stroke="#b85450" stroke-width="3" pointer-events="all"/><path d="M 251 118 L 251 68.1" fill="none" stroke="#9673a6" stroke-width="3" stroke-miterlimit="10" pointer-events="stroke"/><path d="M 251 61.35 L 255.5 70.35 L 251 68.1 L 246.5 70.35 Z" fill="#9673a6" stroke="#9673a6" stroke-width="3" stroke-miterlimit="10" pointer-events="all"/><ellipse cx="251" cy="138" rx="20" ry="20" fill="#e1d5e7" stroke="#9673a6" stroke-width="3" pointer-events="all"/><ellipse cx="251" cy="258" rx="20" ry="20" fill="#f8cecc" stroke="#b85450" stroke-width="3" pointer-events="all"/><ellipse cx="131" cy="278" rx="20" ry="20" fill="#f8cecc" stroke="#b85450" stroke-width="3" pointer-events="all"/><ellipse cx="171" cy="298" rx="20" ry="20" fill="#f8cecc" stroke="#b85450" stroke-width="3" pointer-events="all"/><ellipse cx="211" cy="278" rx="20" ry="20" fill="#f8cecc" stroke="#b85450" stroke-width="3" pointer-events="all"/><ellipse cx="171" cy="178" rx="20" ry="20" fill="#f8cecc" stroke="#b85450" stroke-width="3" pointer-events="all"/><ellipse cx="171" cy="218" rx="20" ry="20" fill="#f8cecc" stroke="#b85450" stroke-width="3" pointer-events="all"/><ellipse cx="171" cy="258" rx="20" ry="20" fill="#f8cecc" stroke="#b85450" stroke-width="3" pointer-events="all"/><path d="M 171 118 L 171 68.1" fill="none" stroke="#9673a6" stroke-width="3" stroke-miterlimit="10" pointer-events="stroke"/><path d="M 171 61.35 L 175.5 70.35 L 171 68.1 L 166.5 70.35 Z" fill="#9673a6" stroke="#9673a6" stroke-width="3" stroke-miterlimit="10" pointer-events="all"/><ellipse cx="171" cy="138" rx="20" ry="20" fill="#e1d5e7" stroke="#9673a6" stroke-width="3" pointer-events="all"/><ellipse cx="131" cy="158" rx="20" ry="20" fill="#f8cecc" stroke="#b85450" stroke-width="3" pointer-events="all"/><ellipse cx="131" cy="198" rx="20" ry="20" fill="#f8cecc" stroke="#b85450" stroke-width="3" pointer-events="all"/><ellipse cx="131" cy="238" rx="20" ry="20" fill="#f8cecc" stroke="#b85450" stroke-width="3" pointer-events="all"/><ellipse cx="91" cy="178" rx="20" ry="20" fill="#f8cecc" stroke="#b85450" stroke-width="3" pointer-events="all"/><ellipse cx="91" cy="218" rx="20" ry="20" fill="#f8cecc" stroke="#b85450" stroke-width="3" pointer-events="all"/><ellipse cx="91" cy="258" rx="20" ry="20" fill="#f8cecc" stroke="#b85450" stroke-width="3" pointer-events="all"/><ellipse cx="91" cy="138" rx="20" ry="20" fill="#e1d5e7" stroke="#9673a6" stroke-width="3" pointer-events="all"/><ellipse cx="171" cy="338" rx="20" ry="20" fill="#f8cecc" stroke="#b85450" stroke-width="3" pointer-events="all"/><ellipse cx="151" cy="378" rx="20" ry="20" fill="#ffe6cc" stroke="#d79b00" stroke-width="3" pointer-events="all"/><ellipse cx="191" cy="378" rx="20" ry="20" fill="#ffe6cc" stroke="#d79b00" stroke-width="3" pointer-events="all"/><ellipse cx="231" cy="418" rx="20" ry="20" fill="#fff2cc" stroke="#d6b656" stroke-width="3" pointer-events="all"/><ellipse cx="111" cy="418" rx="20" ry="20" fill="#fff2cc" stroke="#d6b656" stroke-width="3" pointer-events="all"/><ellipse cx="171" cy="418" rx="20" ry="20" fill="#fff2cc" stroke="#d6b656" stroke-width="3" pointer-events="all"/><path d="M 141 498 L 141 527.9" fill="none" stroke="#6c8ebf" stroke-width="3" stroke-miterlimit="10" pointer-events="stroke"/><path d="M 141 534.65 L 136.5 525.65 L 141 527.9 L 145.5 525.65 Z" fill="#6c8ebf" stroke="#6c8ebf" stroke-width="3" stroke-miterlimit="10" pointer-events="all"/><ellipse cx="141" cy="478" rx="20" ry="20" fill="#dae8fc" stroke="#6c8ebf" stroke-width="3" pointer-events="all"/><path d="M 201 498 L 201 527.9" fill="none" stroke="#6c8ebf" stroke-width="3" stroke-miterlimit="10" pointer-events="stroke"/><path d="M 201 534.65 L 196.5 525.65 L 201 527.9 L 205.5 525.65 Z" fill="#6c8ebf" stroke="#6c8ebf" stroke-width="3" stroke-miterlimit="10" pointer-events="all"/><ellipse cx="201" cy="478" rx="20" ry="20" fill="#dae8fc" stroke="#6c8ebf" stroke-width="3" pointer-events="all"/><path d="M 71 498 L 71 527.9" fill="none" stroke="#6c8ebf" stroke-width="3" stroke-miterlimit="10" pointer-events="stroke"/><path d="M 71 534.65 L 66.5 525.65 L 71 527.9 L 75.5 525.65 Z" fill="#6c8ebf" stroke="#6c8ebf" stroke-width="3" stroke-miterlimit="10" pointer-events="all"/><ellipse cx="71" cy="478" rx="20" ry="20" fill="#dae8fc" stroke="#6c8ebf" stroke-width="3" pointer-events="all"/><path d="M 141 348 L 141 328 Q 141 318 132.06 313.53 L 69.94 282.47 Q 61 278 61 268 L 61 118 Q 61 108 71 108 L 271 108 Q 281 108 281 118 L 281 268 Q 281 278 272.06 282.47 L 209.94 313.53 Q 201 318 201 328 L 201 348" fill="none" stroke="#82b366" stroke-width="3" stroke-miterlimit="10" pointer-events="stroke"/><path d="M 91 118 L 91 68.1" fill="none" stroke="#9673a6" stroke-width="3" stroke-miterlimit="10" pointer-events="stroke"/><path d="M 91 61.35 L 95.5 70.35 L 91 68.1 L 86.5 70.35 Z" fill="#9673a6" stroke="#9673a6" stroke-width="3" stroke-miterlimit="10" pointer-events="all"/><path d="M 271 498 L 271 527.9" fill="none" stroke="#6c8ebf" stroke-width="3" stroke-miterlimit="10" pointer-events="stroke"/><path d="M 271 534.65 L 266.5 525.65 L 271 527.9 L 275.5 525.65 Z" fill="#6c8ebf" stroke="#6c8ebf" stroke-width="3" stroke-miterlimit="10" pointer-events="all"/><ellipse cx="271" cy="478" rx="20" ry="20" fill="#dae8fc" stroke="#6c8ebf" stroke-width="3" pointer-events="all"/></g></svg>