<?xml version="1.0" encoding="UTF-8"?>
<!DOCTYPE svg PUBLIC "-//W3C//DTD SVG 1.1//EN" "http://www.w3.org/Graphics/SVG/1.1/DTD/svg11.dtd">
<svg xmlns="http://www.w3.org/2000/svg" xmlns:xlink="http://www.w3.org/1999/xlink" version="1.1" width="863px" height="643px" viewBox="-0.5 -0.5 863 643"><defs/><g><ellipse cx="431" cy="551" rx="20" ry="20" fill="#d5e8d4" stroke="#82b366" stroke-width="3" pointer-events="all"/><ellipse cx="391" cy="431" rx="20" ry="20" fill="#d5e8d4" stroke="#82b366" stroke-width="3" pointer-events="all"/><path d="M 424.79 531.99 L 397.32 449.97" fill="none" stroke="#d6b656" stroke-width="3" stroke-miterlimit="10" pointer-events="stroke"/><ellipse cx="431" cy="391" rx="20" ry="20" fill="#d5e8d4" stroke="#82b366" stroke-width="3" pointer-events="all"/><path d="M 431 531 L 431 411" fill="none" stroke="#d6b656" stroke-width="3" stroke-miterlimit="10" pointer-events="stroke"/><path d="M 490.01 437.21 L 572.03 464.68" fill="none" stroke="#d6b656" stroke-width="3" stroke-miterlimit="10" pointer-events="stroke"/><ellipse cx="471" cy="431" rx="20" ry="20" fill="#d5e8d4" stroke="#82b366" stroke-width="3" pointer-events="all"/><path d="M 437.21 531.99 L 464.68 449.97" fill="none" stroke="#d6b656" stroke-width="3" stroke-miterlimit="10" pointer-events="stroke"/><ellipse cx="271" cy="391" rx="20" ry="20" fill="#d5e8d4" stroke="#82b366" stroke-width="3" pointer-events="all"/><path d="M 371.99 424.79 L 289.97 397.32" fill="none" stroke="#d6b656" stroke-width="3" stroke-miterlimit="10" pointer-events="stroke"/><ellipse cx="596.89" cy="391" rx="20" ry="20" fill="#d5e8d4" stroke="#82b366" stroke-width="3" pointer-events="all"/><path d="M 490.1 425.06 L 577.84 397.1" fill="none" stroke="#d6b656" stroke-width="3" stroke-miterlimit="10" pointer-events="stroke"/><path d="M 424.79 371.99 L 397.32 289.97" fill="none" stroke="#d6b656" stroke-width="3" stroke-miterlimit="10" pointer-events="stroke"/><path d="M 431 371 L 431 251" fill="none" stroke="#d6b656" stroke-width="3" stroke-miterlimit="10" pointer-events="stroke"/><path d="M 437.21 371.99 L 464.68 289.97" fill="none" stroke="#d6b656" stroke-width="3" stroke-miterlimit="10" pointer-events="stroke"/><ellipse cx="391" cy="271" rx="20" ry="20" fill="#d5e8d4" stroke="#82b366" stroke-width="3" pointer-events="all"/><ellipse cx="431" cy="231" rx="20" ry="20" fill="#d5e8d4" stroke="#82b366" stroke-width="3" pointer-events="all"/><ellipse cx="471" cy="271" rx="20" ry="20" fill="#d5e8d4" stroke="#82b366" stroke-width="3" pointer-events="all"/><ellipse cx="351" cy="151" rx="20" ry="20" fill="#d5e8d4" stroke="#82b366" stroke-width="3" pointer-events="all"/><path d="M 384.79 251.99 L 357.32 169.97" fill="none" stroke="#d6b656" stroke-width="3" stroke-miterlimit="10" pointer-events="stroke"/><ellipse cx="291" cy="211" rx="20" ry="20" fill="#d5e8d4" stroke="#82b366" stroke-width="3" pointer-events="all"/><path d="M 373.83 260.74 L 308.15 221.29" fill="none" stroke="#d6b656" stroke-width="3" stroke-miterlimit="10" pointer-events="stroke"/><ellipse cx="291" cy="151" rx="20" ry="20" fill="#d5e8d4" stroke="#82b366" stroke-width="3" pointer-events="all"/><path d="M 378.17 255.66 L 303.8 166.36" fill="none" stroke="#d6b656" stroke-width="3" stroke-miterlimit="10" pointer-events="stroke"/><ellipse cx="571" cy="211" rx="20" ry="20" fill="#d5e8d4" stroke="#82b366" stroke-width="3" pointer-events="all"/><path d="M 488.17 260.74 L 553.85 221.29" fill="none" stroke="#d6b656" stroke-width="3" stroke-miterlimit="10" pointer-events="stroke"/><ellipse cx="571" cy="151" rx="20" ry="20" fill="#d5e8d4" stroke="#82b366" stroke-width="3" pointer-events="all"/><path d="M 483.83 255.66 L 558.2 166.36" fill="none" stroke="#d6b656" stroke-width="3" stroke-miterlimit="10" pointer-events="stroke"/><ellipse cx="511" cy="151" rx="20" ry="20" fill="#d5e8d4" stroke="#82b366" stroke-width="3" pointer-events="all"/><path d="M 477.21 251.99 L 504.68 169.97" fill="none" stroke="#d6b656" stroke-width="3" stroke-miterlimit="10" pointer-events="stroke"/><path d="M 251.99 384.79 L 169.97 357.32" fill="none" stroke="#d6b656" stroke-width="3" stroke-miterlimit="10" pointer-events="stroke"/><path d="M 260.74 373.83 L 221.29 308.15" fill="none" stroke="#d6b656" stroke-width="3" stroke-miterlimit="10" pointer-events="stroke"/><path d="M 255.66 378.17 L 166.36 303.8" fill="none" stroke="#d6b656" stroke-width="3" stroke-miterlimit="10" pointer-events="stroke"/><ellipse cx="431" cy="71" rx="20" ry="20" fill="#d5e8d4" stroke="#82b366" stroke-width="3" pointer-events="all"/><path d="M 431 211 L 431 91" fill="none" stroke="#d6b656" stroke-width="3" stroke-miterlimit="10" pointer-events="stroke"/><ellipse cx="471" cy="111" rx="20" ry="20" fill="#d5e8d4" stroke="#82b366" stroke-width="3" pointer-events="all"/><path d="M 437.21 211.99 L 464.68 129.97" fill="none" stroke="#d6b656" stroke-width="3" stroke-miterlimit="10" pointer-events="stroke"/><path d="M 606.35 373.38 L 641.5 308.6" fill="none" stroke="#d6b656" stroke-width="3" stroke-miterlimit="10" pointer-events="stroke"/><path d="M 611.99 377.88 L 695.96 304.19" fill="none" stroke="#d6b656" stroke-width="3" stroke-miterlimit="10" pointer-events="stroke"/><path d="M 615.78 384.44 L 692.13 357.62" fill="none" stroke="#d6b656" stroke-width="3" stroke-miterlimit="10" pointer-events="stroke"/><ellipse cx="391" cy="111" rx="20" ry="20" fill="#d5e8d4" stroke="#82b366" stroke-width="3" pointer-events="all"/><path d="M 424.79 211.99 L 397.32 129.97" fill="none" stroke="#d6b656" stroke-width="3" stroke-miterlimit="10" pointer-events="stroke"/><ellipse cx="211" cy="291" rx="20" ry="20" fill="#d5e8d4" stroke="#82b366" stroke-width="3" pointer-events="all"/><ellipse cx="151" cy="291" rx="20" ry="20" fill="#d5e8d4" stroke="#82b366" stroke-width="3" pointer-events="all"/><ellipse cx="151" cy="351" rx="20" ry="20" fill="#d5e8d4" stroke="#82b366" stroke-width="3" pointer-events="all"/><ellipse cx="711" cy="351" rx="20" ry="20" fill="#d5e8d4" stroke="#82b366" stroke-width="3" pointer-events="all"/><ellipse cx="711" cy="291" rx="20" ry="20" fill="#d5e8d4" stroke="#82b366" stroke-width="3" pointer-events="all"/><ellipse cx="651" cy="291" rx="20" ry="20" fill="#d5e8d4" stroke="#82b366" stroke-width="3" pointer-events="all"/><ellipse cx="271" cy="471" rx="20" ry="20" fill="#d5e8d4" stroke="#82b366" stroke-width="3" pointer-events="all"/><path d="M 371.99 437.21 L 289.97 464.68" fill="none" stroke="#d6b656" stroke-width="3" stroke-miterlimit="10" pointer-events="stroke"/><path d="M 251.99 477.21 L 169.97 504.68" fill="none" stroke="#d6b656" stroke-width="3" stroke-miterlimit="10" pointer-events="stroke"/><path d="M 260.74 488.17 L 221.29 553.85" fill="none" stroke="#d6b656" stroke-width="3" stroke-miterlimit="10" pointer-events="stroke"/><path d="M 255.66 483.83 L 166.36 558.2" fill="none" stroke="#d6b656" stroke-width="3" stroke-miterlimit="10" pointer-events="stroke"/><ellipse cx="211" cy="571" rx="20" ry="20" fill="#d5e8d4" stroke="#82b366" stroke-width="3" pointer-events="all"/><ellipse cx="151" cy="571" rx="20" ry="20" fill="#d5e8d4" stroke="#82b366" stroke-width="3" pointer-events="all"/><ellipse cx="151" cy="511" rx="20" ry="20" fill="#d5e8d4" stroke="#82b366" stroke-width="3" pointer-events="all"/><ellipse cx="631" cy="431" rx="20" ry="20" fill="#d5e8d4" stroke="#82b366" stroke-width="3" pointer-events="all"/><path d="M 491 431 L 611 431" fill="none" stroke="#d6b656" stroke-width="3" stroke-miterlimit="10" pointer-events="stroke"/><ellipse cx="751" cy="471" rx="20" ry="20" fill="#d5e8d4" stroke="#82b366" stroke-width="3" pointer-events="all"/><path d="M 650.01 437.21 L 732.03 464.68" fill="none" stroke="#d6b656" stroke-width="3" stroke-miterlimit="10" pointer-events="stroke"/><ellipse cx="751" cy="391" rx="20" ry="20" fill="#d5e8d4" stroke="#82b366" stroke-width="3" pointer-events="all"/><path d="M 650.01 424.79 L 732.03 397.32" fill="none" stroke="#d6b656" stroke-width="3" stroke-miterlimit="10" pointer-events="stroke"/><ellipse cx="791" cy="431" rx="20" ry="20" fill="#d5e8d4" stroke="#82b366" stroke-width="3" pointer-events="all"/><path d="M 651 431 L 771 431" fill="none" stroke="#d6b656" stroke-width="3" stroke-miterlimit="10" pointer-events="stroke"/><ellipse cx="591" cy="471" rx="20" ry="20" fill="#d5e8d4" stroke="#82b366" stroke-width="3" pointer-events="all"/><path d="M 601.26 488.17 L 640.71 553.85" fill="none" stroke="#d6b656" stroke-width="3" stroke-miterlimit="10" pointer-events="stroke"/><path d="M 606.34 483.83 L 695.64 558.2" fill="none" stroke="#d6b656" stroke-width="3" stroke-miterlimit="10" pointer-events="stroke"/><path d="M 610.01 477.21 L 692.03 504.68" fill="none" stroke="#d6b656" stroke-width="3" stroke-miterlimit="10" pointer-events="stroke"/><ellipse cx="711" cy="511" rx="20" ry="20" fill="#d5e8d4" stroke="#82b366" stroke-width="3" pointer-events="all"/><ellipse cx="711" cy="571" rx="20" ry="20" fill="#d5e8d4" stroke="#82b366" stroke-width="3" pointer-events="all"/><ellipse cx="651" cy="571" rx="20" ry="20" fill="#d5e8d4" stroke="#82b366" stroke-width="3" pointer-events="all"/><ellipse cx="231" cy="431" rx="20" ry="20" fill="#d5e8d4" stroke="#82b366" stroke-width="3" pointer-events="all"/><path d="M 371 431 L 251 431" fill="none" stroke="#d6b656" stroke-width="3" stroke-miterlimit="10" pointer-events="stroke"/><path d="M 211 431 L 91 431" fill="none" stroke="#d6b656" stroke-width="3" stroke-miterlimit="10" pointer-events="stroke"/><path d="M 211.99 437.21 L 129.97 464.68" fill="none" stroke="#d6b656" stroke-width="3" stroke-miterlimit="10" pointer-events="stroke"/><path d="M 211.99 424.79 L 129.97 397.32" fill="none" stroke="#d6b656" stroke-width="3" stroke-miterlimit="10" pointer-events="stroke"/><ellipse cx="111" cy="471" rx="20" ry="20" fill="#d5e8d4" stroke="#82b366" stroke-width="3" pointer-events="all"/><ellipse cx="111" cy="391" rx="20" ry="20" fill="#d5e8d4" stroke="#82b366" stroke-width="3" pointer-events="all"/><ellipse cx="71" cy="431" rx="20" ry="20" fill="#d5e8d4" stroke="#82b366" stroke-width="3" pointer-events="all"/></g></svg>