<?xml version="1.0" encoding="utf-8"?>
<!-- Generator: Adobe Illustrator 19.2.0, SVG Export Plug-In . SVG Version: 6.00 Build 0)  -->
<svg version="1.1" id="Слой_1" xmlns="http://www.w3.org/2000/svg" xmlns:xlink="http://www.w3.org/1999/xlink" x="0px" y="0px"
	 viewBox="-200 -200 895.1 728.6" width="895.1" height="528.6" style="enable-background:new 0 0 495.1 328.6;" xml:space="preserve">
<style type="text/css">
	.st0{fill:#3a8ccb;}
</style>
<g>
	<path class="st0" d="M183.9,224.1c-4.6,0-8.8,1.3-12.5,3.4l-60.8-66.5V48.9c4.3-1.1,8.2-3.3,11.3-6.3l36.8,26.8
		c-0.7,2.3-1.1,4.8-1.1,7.4c0,13.7,11.1,24.8,24.8,24.8s24.8-11.1,24.8-24.8S196.2,52,182.5,52c-6.4,0-12.3,2.5-16.7,6.5l-37.2-27.1
		c0.6-2.1,0.9-4.3,0.9-6.5c0-13.7-11.1-24.8-24.8-24.8S79.9,11.1,79.9,24.8c0,2.6,0.4,5.1,1.2,7.5L42.3,59.2
		C37.8,54.7,31.6,52,24.8,52C11.1,52,0,63.1,0,76.8s11.1,24.8,24.8,24.8c4.1,0,8-1,11.5-2.8L97.7,166v110.9c-4.2,1.1-8,3.3-11,6.2
		l-36.8-26.8c0.7-2.3,1.1-4.8,1.1-7.4c0-13.7-11.1-24.8-24.8-24.8S1.4,235.2,1.4,248.9s11.1,24.8,24.8,24.8c6.4,0,12.3-2.5,16.7-6.5
		l37.2,27.1c-0.6,2.1-0.9,4.3-0.9,6.5c0,13.7,11.1,24.8,24.8,24.8s24.8-11.1,24.8-24.8c0-2.6-0.4-5.1-1.2-7.5l38.8-26.9
		c4.5,4.5,10.7,7.2,17.5,7.2c13.7,0,24.8-11.1,24.8-24.8S197.6,224.1,183.9,224.1z M182.5,64.9c6.5,0,11.9,5.3,11.9,11.9
		c0,6.5-5.3,11.9-11.9,11.9c-6.5,0-11.9-5.3-11.9-11.9C170.6,70.2,175.9,64.9,182.5,64.9z M104.7,12.9c6.5,0,11.9,5.3,11.9,11.9
		c0,6.5-5.3,11.9-11.9,11.9c-6.5,0-11.9-5.3-11.9-11.9C92.8,18.3,98.1,12.9,104.7,12.9z M24.8,88.6c-6.5,0-11.9-5.3-11.9-11.9
		c0-6.5,5.3-11.9,11.9-11.9s11.9,5.3,11.9,11.9C36.7,83.3,31.3,88.6,24.8,88.6z M45.8,89.9c2.4-3.8,3.8-8.3,3.8-13.2
		c0-2.2-0.3-4.3-0.8-6.3l39.3-27.3c2.7,2.5,6,4.4,9.6,5.4v98.2L45.8,89.9z M162.3,236.7c-2,3.6-3.2,7.8-3.2,12.2
		c0,2.2,0.3,4.3,0.9,6.3l-39.3,27.3c-2.8-2.6-6.2-4.5-10-5.5v-96.8L162.3,236.7z M26.2,260.7c-6.5,0-11.9-5.3-11.9-11.9
		c0-6.5,5.3-11.9,11.9-11.9c6.5,0,11.9,5.3,11.9,11.9C38.1,255.4,32.8,260.7,26.2,260.7z M104,312.7c-6.5,0-11.9-5.3-11.9-11.9
		c0-6.5,5.3-11.9,11.9-11.9c6.5,0,11.9,5.3,11.9,11.9C115.9,307.4,110.5,312.7,104,312.7z M183.9,260.7c-6.5,0-11.9-5.3-11.9-11.9
		c0-6.5,5.3-11.9,11.9-11.9c6.5,0,11.9,5.3,11.9,11.9C195.7,255.4,190.4,260.7,183.9,260.7z"/>
	<g>
		<g>
			<path class="st0" d="M283,143.1l0.9,10.2c2.5-3.7,5.6-6.6,9.3-8.6c3.7-2,8-3,12.9-3c4.9,0,9.2,1.1,12.7,3.3
				c3.5,2.2,6.2,5.5,8,9.9c2.4-4.1,5.5-7.4,9.3-9.7s8.3-3.5,13.4-3.5c7.6,0,13.6,2.7,18,8.1c4.4,5.4,6.6,13.6,6.6,24.7v45.8h-20.8
				v-45.8c0-6.2-1-10.5-2.9-12.9c-1.9-2.4-4.7-3.6-8.5-3.6c-2.9,0-5.5,0.7-7.7,2c-2.2,1.3-3.9,3.1-5.2,5.5c0,0.9,0,1.7,0.1,2.3
				c0,0.6,0.1,1.3,0.1,2v50.7h-20.7v-45.8c0-6-1-10.3-2.9-12.8c-1.9-2.5-4.8-3.7-8.6-3.7c-2.8,0-5.3,0.5-7.4,1.6
				c-2.1,1.1-3.9,2.6-5.2,4.5v56.2h-20.7v-77.1H283z"/>
			<path class="st0" d="M386.8,180.9c0-11.5,3.2-20.9,9.6-28.3c6.4-7.3,15.3-11,26.7-11c11.4,0,20.3,3.7,26.8,11
				c6.5,7.3,9.7,16.7,9.7,28.3v1.5c0,11.6-3.2,21-9.7,28.3c-6.4,7.3-15.3,10.9-26.7,10.9c-11.4,0-20.3-3.6-26.8-10.9
				c-6.4-7.3-9.7-16.7-9.7-28.3V180.9z M407.5,182.4c0,7,1.2,12.7,3.7,16.9s6.5,6.4,12,6.4c5.4,0,9.3-2.1,11.8-6.4
				c2.5-4.3,3.7-9.9,3.7-16.9v-1.5c0-6.8-1.3-12.4-3.8-16.7s-6.5-6.5-11.9-6.5c-5.4,0-9.3,2.2-11.8,6.5c-2.5,4.4-3.7,9.9-3.7,16.7
				V182.4z"/>
			<path class="st0" d="M494.2,220.2h-20.8V109h20.8V220.2z"/>
		</g>
		<g>
			<path d="M279.9,284.8h-1.8v-10.2h-12.6v10.2h-1.8v-22.2h1.8v10.4h12.6v-10.4h1.8V284.8z"/>
			<path d="M295.6,284.8c-0.1-0.6-0.2-1.1-0.3-1.5c-0.1-0.4-0.1-0.8-0.1-1.3c-0.6,0.9-1.4,1.6-2.4,2.2c-1,0.6-2.2,0.9-3.5,0.9
				c-1.6,0-2.9-0.4-3.8-1.3c-0.9-0.9-1.3-2-1.3-3.5s0.6-2.7,1.9-3.6s3-1.4,5-1.4h4.1v-2c0-1.2-0.4-2.1-1.1-2.8c-0.7-0.7-1.8-1-3.2-1
				c-1.2,0-2.3,0.3-3,0.9c-0.8,0.6-1.2,1.4-1.2,2.3h-1.7l0-0.1c-0.1-1.2,0.5-2.3,1.6-3.3c1.1-0.9,2.6-1.4,4.4-1.4
				c1.8,0,3.3,0.5,4.4,1.4c1.1,0.9,1.6,2.2,1.6,4v8.1c0,0.6,0,1.1,0.1,1.7c0.1,0.5,0.2,1.1,0.3,1.6H295.6z M289.5,283.5
				c1.4,0,2.6-0.3,3.6-1c1-0.7,1.7-1.5,2.1-2.6v-3.2h-4.1c-1.5,0-2.7,0.4-3.7,1.1c-1,0.7-1.4,1.6-1.4,2.6c0,0.9,0.3,1.7,0.9,2.3
				C287.6,283.2,288.5,283.5,289.5,283.5z"/>
			<path d="M314.5,284.8h-1.8v-7.6h-8.9v7.6h-1.8v-16.5h1.8v7.4h8.9v-7.4h1.8V284.8z"/>
			<path d="M318.3,276.3c0-2.4,0.7-4.4,2-6c1.3-1.6,3.1-2.3,5.3-2.3c2.2,0,4,0.8,5.3,2.3s2,3.5,2,6v0.5c0,2.4-0.7,4.4-2,6
				c-1.3,1.5-3.1,2.3-5.3,2.3c-2.2,0-4-0.8-5.3-2.3c-1.3-1.5-2-3.5-2-6V276.3z M320.1,276.8c0,1.9,0.5,3.5,1.4,4.8
				c1,1.3,2.3,1.9,4,1.9c1.7,0,3-0.7,4-1.9c1-1.3,1.5-2.9,1.5-4.8v-0.5c0-1.9-0.5-3.5-1.5-4.8c-1-1.3-2.3-2-4-2c-1.7,0-3,0.7-4,2
				c-1,1.3-1.4,2.9-1.4,4.8V276.8z"/>
			<path d="M348.6,269.9h-6v14.9h-1.8v-14.9H335v-1.6h13.6V269.9z"/>
			<path d="M358.1,285.1c-2.1,0-3.9-0.8-5.2-2.3c-1.3-1.5-2-3.4-2-5.8v-0.8c0-2.4,0.7-4.3,2-5.9c1.3-1.5,3-2.3,5-2.3
				c2,0,3.5,0.6,4.6,1.9c1.1,1.3,1.6,3,1.6,5.2v1.4h-11.5v0.5c0,1.9,0.5,3.4,1.4,4.7c0.9,1.2,2.3,1.9,3.9,1.9c1,0,1.9-0.2,2.8-0.5
				c0.8-0.3,1.5-0.8,2.1-1.3l0.8,1.2c-0.6,0.6-1.3,1.1-2.3,1.5C360.5,284.9,359.4,285.1,358.1,285.1z M357.9,269.6
				c-1.4,0-2.6,0.5-3.5,1.5s-1.4,2.3-1.6,3.8l0,0.1h9.4v-0.4c0-1.5-0.4-2.7-1.2-3.6C360.5,270.1,359.4,269.6,357.9,269.6z"/>
			<path d="M373.1,275.1l4.5-6.7h2.2l-5.6,8.1l5.8,8.4h-2.1l-4.7-7l-4.7,7h-2.2l5.8-8.4l-5.6-8.1h2.1L373.1,275.1z"/>
			<path d="M395.7,284.8h-1.8v-7.6H385v7.6h-1.8v-16.5h1.8v7.4h8.9v-7.4h1.8V284.8z"/>
			<path d="M399.5,276.3c0-2.4,0.7-4.4,2-6c1.3-1.6,3.1-2.3,5.3-2.3c2.2,0,4,0.8,5.3,2.3c1.3,1.6,2,3.5,2,6v0.5c0,2.4-0.7,4.4-2,6
				c-1.3,1.5-3.1,2.3-5.3,2.3c-2.2,0-4-0.8-5.3-2.3c-1.3-1.5-2-3.5-2-6V276.3z M401.3,276.8c0,1.9,0.5,3.5,1.4,4.8
				c1,1.3,2.3,1.9,4,1.9c1.7,0,3-0.7,4-1.9c1-1.3,1.5-2.9,1.5-4.8v-0.5c0-1.9-0.5-3.5-1.5-4.8c-1-1.3-2.3-2-4-2c-1.7,0-3,0.7-4,2
				c-1,1.3-1.4,2.9-1.4,4.8V276.8z"/>
			<path d="M430.2,268.3v16.5h-1.8v-14.9h-7v5.7c0,3.2-0.4,5.6-1.1,7c-0.8,1.4-2,2.2-3.8,2.2h-0.7l0-1.6l0.6,0
				c1.1,0,1.9-0.6,2.4-1.7c0.5-1.1,0.8-3.1,0.8-5.9v-7.3H430.2z"/>
			<path d="M433.8,276.3c0-2.4,0.7-4.4,2-6s3.1-2.3,5.3-2.3c2.2,0,4,0.8,5.3,2.3c1.3,1.6,2,3.5,2,6v0.5c0,2.4-0.7,4.4-2,6
				c-1.3,1.5-3.1,2.3-5.3,2.3c-2.2,0-4-0.8-5.3-2.3c-1.3-1.5-2-3.5-2-6V276.3z M435.6,276.8c0,1.9,0.5,3.5,1.4,4.8
				c1,1.3,2.3,1.9,4,1.9c1.7,0,3-0.7,4-1.9c1-1.3,1.5-2.9,1.5-4.8v-0.5c0-1.9-0.5-3.5-1.5-4.8c-1-1.3-2.3-2-4-2c-1.7,0-3,0.7-4,2
				c-1,1.3-1.4,2.9-1.4,4.8V276.8z"/>
			<path d="M462.3,269.9H454v14.9h-1.8v-16.5h10.2V269.9z"/>
			<path d="M476,268.3h1.8v16.5H476v-13.4l-0.1,0l-8.8,13.5h-1.8v-16.5h1.8v13.4l0.1,0L476,268.3z"/>
			<path d="M493.3,268.3h1.8v16.5h-1.8v-13.4l-0.1,0l-8.8,13.5h-1.8v-16.5h1.8v13.4l0.1,0L493.3,268.3z"/>
			<path d="M263.1,320.7c0.8,0,1.4-0.8,1.9-2.3c0.5-1.5,0.8-3.8,0.9-6.7l0.3-6h9.9v14.9h1.6v6.9h-1.8v-5.4h-12.4v5.4h-1.7v-6.9
				H263.1z M267.7,311.7c-0.1,2.2-0.3,4-0.6,5.5c-0.3,1.5-0.7,2.7-1.2,3.5h8.4v-13.2H268L267.7,311.7z"/>
			<path d="M294,305.8v16.5h-1.8v-14.9h-7v5.7c0,3.2-0.4,5.6-1.1,7c-0.8,1.4-2,2.2-3.8,2.2h-0.7l0-1.6l0.6,0c1.1,0,1.9-0.6,2.4-1.7
				s0.8-3.1,0.8-5.9v-7.3H294z"/>
			<path d="M310.9,305.8v16.5H309v-6.6h-5.1l-4,6.6h-2l4.1-6.9c-1.1-0.3-2-0.9-2.6-1.7c-0.6-0.8-0.9-1.8-0.9-3
				c0-1.4,0.5-2.6,1.6-3.5c1-0.9,2.5-1.4,4.3-1.4H310.9z M300.3,310.7c0,0.9,0.3,1.7,0.9,2.4c0.6,0.6,1.5,1,2.7,1h5.1v-6.7h-4.7
				c-1.4,0-2.4,0.3-3.1,1C300.6,309,300.3,309.8,300.3,310.7z"/>
			<path d="M333.6,307.3h-8.3v14.9h-1.8v-16.5h10.2V307.3z"/>
			<path d="M347.2,305.8h1.8v16.5h-1.8v-13.4l-0.1,0l-8.8,13.5h-1.8v-16.5h1.8v13.4l0.1,0L347.2,305.8z"/>
			<path d="M366.4,322.2h-1.8v-14.9h-8.9v14.9h-1.8v-16.5h12.5V322.2z"/>
			<path d="M377.4,322.6c-2.1,0-3.9-0.8-5.2-2.3c-1.3-1.5-2-3.4-2-5.8v-0.8c0-2.4,0.7-4.3,2-5.9s3-2.3,5-2.3c2,0,3.5,0.6,4.6,1.9
				c1.1,1.3,1.6,3,1.6,5.2v1.4h-11.5v0.5c0,1.9,0.5,3.4,1.4,4.7c0.9,1.2,2.3,1.9,3.9,1.9c1,0,1.9-0.2,2.8-0.5s1.5-0.8,2.1-1.3
				l0.8,1.2c-0.6,0.6-1.3,1.1-2.3,1.5C379.9,322.4,378.7,322.6,377.4,322.6z M377.3,307c-1.4,0-2.6,0.5-3.5,1.5
				c-0.9,1-1.4,2.3-1.6,3.8l0,0.1h9.4v-0.4c0-1.5-0.4-2.7-1.2-3.6S378.7,307,377.3,307z"/>
			<path d="M400.5,314.5c0,2.5-0.6,4.4-1.7,5.9c-1.1,1.5-2.7,2.2-4.6,2.2c-1.1,0-2.2-0.2-3-0.7c-0.9-0.4-1.6-1.1-2.1-1.9v8.5h-1.8
				v-22.8h1.4l0.3,2.6c0.5-0.9,1.3-1.6,2.1-2.1c0.9-0.5,1.9-0.8,3.1-0.8c2,0,3.5,0.8,4.6,2.4c1.1,1.6,1.7,3.7,1.7,6.3V314.5z
				 M398.7,314.1c0-2.1-0.4-3.8-1.2-5.1c-0.8-1.3-2.1-2-3.7-2c-1.2,0-2.2,0.3-3,0.9c-0.8,0.6-1.3,1.3-1.7,2.3v8
				c0.4,0.9,1,1.6,1.8,2.1c0.8,0.5,1.8,0.8,2.9,0.8c1.6,0,2.8-0.6,3.6-1.8s1.2-2.8,1.2-4.8V314.1z"/>
			<path d="M410.7,313c1.6,0,2.7-0.3,3.4-0.8c0.7-0.5,1.1-1.2,1.1-2.2c0-0.9-0.4-1.6-1.2-2.2c-0.8-0.6-1.9-0.9-3.5-0.9
				c-1.3,0-2.5,0.3-3.4,0.9c-0.9,0.6-1.4,1.4-1.4,2.3h-1.7l0-0.1c-0.1-1.4,0.5-2.5,1.8-3.3c1.3-0.9,2.8-1.3,4.7-1.3
				c2,0,3.6,0.4,4.7,1.2c1.2,0.8,1.7,2,1.7,3.4c0,0.8-0.3,1.5-0.8,2.2c-0.6,0.6-1.3,1.1-2.3,1.5c1.1,0.3,2,0.8,2.6,1.5
				c0.6,0.7,0.9,1.5,0.9,2.5c0,1.5-0.6,2.7-1.9,3.5c-1.3,0.9-2.9,1.3-4.9,1.3c-1.9,0-3.5-0.4-4.8-1.3c-1.3-0.8-2-2.1-1.9-3.6l0-0.1
				h1.7c0,1,0.5,1.8,1.4,2.5c0.9,0.7,2.1,1,3.6,1c1.5,0,2.7-0.3,3.6-0.9c0.9-0.6,1.3-1.4,1.3-2.4c0-1.1-0.4-1.9-1.2-2.4
				c-0.8-0.5-2-0.8-3.6-0.8h-2.8V313H410.7z"/>
			<path d="M432,322.2c-0.1-0.6-0.2-1.1-0.3-1.5c-0.1-0.4-0.1-0.8-0.1-1.3c-0.6,0.9-1.4,1.6-2.4,2.2c-1,0.6-2.2,0.9-3.5,0.9
				c-1.6,0-2.9-0.4-3.8-1.3c-0.9-0.9-1.3-2-1.3-3.5s0.6-2.7,1.9-3.6c1.3-0.9,3-1.4,5-1.4h4.1v-2c0-1.2-0.4-2.1-1.1-2.8
				c-0.7-0.7-1.8-1-3.2-1c-1.2,0-2.3,0.3-3,0.9c-0.8,0.6-1.2,1.4-1.2,2.3h-1.7l0-0.1c-0.1-1.2,0.5-2.3,1.6-3.3
				c1.1-0.9,2.6-1.4,4.4-1.4c1.8,0,3.3,0.5,4.4,1.4c1.1,0.9,1.6,2.2,1.6,4v8.1c0,0.6,0,1.1,0.1,1.7c0.1,0.5,0.2,1.1,0.3,1.6H432z
				 M425.9,320.9c1.4,0,2.6-0.3,3.6-1c1-0.7,1.7-1.5,2.1-2.6v-3.2h-4.1c-1.5,0-2.7,0.4-3.7,1.1c-1,0.7-1.4,1.6-1.4,2.6
				c0,0.9,0.3,1.7,0.9,2.3C424,320.7,424.8,320.9,425.9,320.9z"/>
			<path d="M438.2,320.7c0.8,0,1.4-0.8,1.9-2.3s0.8-3.8,0.9-6.7l0.3-6h9.9v14.9h1.6v6.9H451v-5.4h-12.4v5.4h-1.7v-6.9H438.2z
				 M442.9,311.7c-0.1,2.2-0.3,4-0.6,5.5s-0.7,2.7-1.2,3.5h8.4v-13.2h-6.3L442.9,311.7z"/>
			<path d="M467,322.2c-0.1-0.6-0.2-1.1-0.3-1.5c-0.1-0.4-0.1-0.8-0.1-1.3c-0.6,0.9-1.4,1.6-2.4,2.2c-1,0.6-2.2,0.9-3.5,0.9
				c-1.6,0-2.9-0.4-3.8-1.3c-0.9-0.9-1.3-2-1.3-3.5s0.6-2.7,1.9-3.6c1.3-0.9,3-1.4,5-1.4h4.1v-2c0-1.2-0.4-2.1-1.1-2.8
				c-0.7-0.7-1.8-1-3.2-1c-1.2,0-2.3,0.3-3,0.9c-0.8,0.6-1.2,1.4-1.2,2.3h-1.7l0-0.1c-0.1-1.2,0.5-2.3,1.6-3.3
				c1.1-0.9,2.6-1.4,4.4-1.4s3.3,0.5,4.4,1.4c1.1,0.9,1.6,2.2,1.6,4v8.1c0,0.6,0,1.1,0.1,1.7c0.1,0.5,0.2,1.1,0.3,1.6H467z
				 M460.9,320.9c1.4,0,2.6-0.3,3.6-1c1-0.7,1.7-1.5,2.1-2.6v-3.2h-4.1c-1.5,0-2.7,0.4-3.7,1.1c-1,0.7-1.4,1.6-1.4,2.6
				c0,0.9,0.3,1.7,0.9,2.3C459,320.7,459.9,320.9,460.9,320.9z"/>
			<path d="M485.7,322.2h-1.8v-6.9c-0.7,0.3-1.4,0.5-2.2,0.6c-0.7,0.1-1.4,0.2-2.1,0.2c-2.1,0-3.7-0.5-4.8-1.4
				c-1-0.9-1.6-2.5-1.6-4.8v-4.2h1.8v4.2c0,1.7,0.4,2.9,1.1,3.6c0.7,0.7,1.8,1,3.4,1c0.7,0,1.5-0.1,2.2-0.2s1.4-0.3,2.1-0.6v-8h1.8
				V322.2z"/>
		</g>
	</g>
</g>
</svg>
